<svg width="370" height="608" viewBox="0 0 370 608" fill="none" xmlns="http://www.w3.org/2000/svg">
<mask id="mask0_318_2" style="mask-type:alpha" maskUnits="userSpaceOnUse" x="0" y="0" width="370" height="608">
<rect width="370" height="608" fill="white"/>
</mask>
<g mask="url(#mask0_318_2)">
<path d="M370 0H0V587H370V0Z" fill="white"/>
<path d="M370 0H0V634H370V0Z" fill="url(#paint0_linear_318_2)"/>
<path d="M212.315 222.818H109.917C105.717 222.818 102.281 219.486 102.158 215.299L97.0658 41.9717C96.9398 37.6088 100.449 34 104.825 34H216.821C221.186 34 224.695 37.5909 224.58 41.9466L220.074 215.277C219.966 219.475 216.526 222.818 212.315 222.818Z" fill="#341B3F"/>
<path d="M105.61 201.639L103.134 46.7007C103.069 42.7257 106.283 39.4688 110.267 39.4688H212.902C216.922 39.4688 220.15 42.7831 220.032 46.7941L215.49 201.732C215.378 205.582 212.218 208.641 208.361 208.641H112.743C108.849 208.645 105.675 205.524 105.61 201.639Z" fill="#00B5BE"/>
<path d="M133.261 197.607C132.736 197.607 132.25 197.269 132.084 196.745C131.879 196.095 132.239 195.402 132.891 195.197C139.775 193.025 146.059 189.287 151.569 184.08C156.758 179.175 161.066 173.067 164.028 166.409C169.869 153.285 170.175 139.119 164.866 127.549C156.409 109.106 116.084 60.6012 115.677 60.1129C115.242 59.5886 115.314 58.813 115.839 58.3749C116.365 57.9404 117.142 58.0122 117.581 58.5365C117.682 58.6586 127.91 70.9465 139.055 85.3745C154.059 104.794 163.499 118.637 167.116 126.522C172.715 138.735 172.413 153.637 166.288 167.408C163.196 174.36 158.694 180.744 153.267 185.868C147.484 191.333 140.88 195.262 133.636 197.546C133.51 197.585 133.384 197.607 133.261 197.607Z" fill="white"/>
<path d="M167.494 48.2676L129.676 75.3311L130.997 77.1693L168.816 50.1059L167.494 48.2676Z" fill="white"/>
<path d="M202.898 67.5102L150.578 102.741L151.846 104.616L204.167 69.3854L202.898 67.5102Z" fill="white"/>
<path d="M159.038 55.5948L157.316 57.0664L180.526 84.1044L182.248 82.6328L159.038 55.5948Z" fill="white"/>
<path d="M211.328 91.8416L164.561 123.647L165.837 125.517L212.605 93.7109L211.328 91.8416Z" fill="white"/>
<path d="M182.11 154.197C175.719 154.197 168.974 153.288 163.13 150.552C144.387 141.783 109.187 138.149 108.834 138.113L109.061 135.865C110.518 136.012 144.999 139.575 164.091 148.509C182.582 157.163 211.29 146.735 211.578 146.631L212.366 148.749C212.063 148.861 204.844 151.503 195.149 153.083C191.33 153.701 186.814 154.197 182.11 154.197Z" fill="white"/>
<path d="M142.775 136.031C142.775 136.031 159.355 144.994 161.586 142.724C163.818 140.455 158.639 123.488 156.49 124.059C154.342 124.63 142.534 134.279 142.775 136.031Z" fill="#00939E"/>
<path d="M201.714 105.929C201.714 105.929 172.675 122.967 173.496 125.546C174.32 128.124 176.159 142.25 176.062 146.078C175.968 149.906 210.898 143.31 211.967 141.266C213.04 139.223 211.967 100.381 211.967 100.381L201.714 105.929Z" fill="#00939E"/>
<path d="M141.761 127.018L151.028 120.328C152.828 119.028 153.18 116.493 151.802 114.755L129.468 86.6062C128.352 85.2022 126.419 84.7354 124.785 85.4787L117.393 88.8433C115.223 89.8308 114.439 92.5096 115.738 94.5061L136.197 125.976C137.414 127.851 139.951 128.325 141.761 127.018Z" fill="#00939E"/>
<path d="M110.473 132.059C110.473 132.059 134.002 135.998 133.876 134.116C133.747 132.235 113.77 100.761 111.711 100.879C109.649 100.994 110.473 132.059 110.473 132.059Z" fill="#00939E"/>
<path d="M156.3 61.8468C156.3 61.8468 136.219 74.6913 137.453 76.7452C138.688 78.7992 148.779 97.5004 152.64 96.5775C156.502 95.6511 174.698 84.5553 173.478 81.8838C172.261 79.2122 157.639 60.2022 156.3 61.8468Z" fill="#00939E"/>
<path d="M171.368 96.6099C171.368 96.6099 157.063 105.041 158.175 106.442C159.287 107.846 163.404 113.871 165.326 113.598C167.248 113.325 182.064 104.42 181.384 102.912C180.707 101.407 172.901 95.6871 171.368 96.6099Z" fill="#00939E"/>
<path d="M192.965 83.3672C192.965 83.3672 174.529 93.199 175.489 94.8364C176.45 96.4738 182.083 100.858 184.209 100.377C186.336 99.8959 198.007 93.3354 197.734 91.8883C197.457 90.4448 192.965 83.3672 192.965 83.3672Z" fill="#00939E"/>
<path d="M178.787 45.9327C178.787 45.9327 167.252 54.953 168.213 56.3283C169.174 57.7036 179.884 74.419 182.767 74.419C185.65 74.419 205.422 62.2388 205.422 60.1777C205.422 58.1165 194.236 44.2773 192.962 44.2773C191.692 44.2773 178.787 45.9327 178.787 45.9327Z" fill="#00939E"/>
<path d="M123.45 56.328C123.45 56.328 131.533 67.7613 133.876 67.3232C136.219 66.8816 160.216 48.4892 159.907 46.9487C159.597 45.4082 119.333 45.6129 119.743 48.1804C120.154 50.7478 123.45 56.328 123.45 56.328Z" fill="#00939E"/>
<path d="M115.622 64.7453C115.622 64.7453 127.707 76.9506 124.137 79.177C120.567 81.4033 109.72 83.3208 109.032 80.4445C108.345 77.5683 106.146 57.9514 115.622 64.7453Z" fill="#00939E"/>
<path d="M113.272 143.6C113.272 143.6 128.39 145.877 135.804 147.687C143.218 149.496 162.918 155.867 162.129 157.716C161.341 159.565 145.931 187.279 129.848 185.753C113.765 184.227 109.072 181.775 108.946 175.013C108.823 168.255 105.98 141.403 113.272 143.6Z" fill="#00939E"/>
<path d="M205.215 155.098C205.215 155.098 184.413 159.806 179.263 159.683C174.113 159.561 173.71 167.576 170.72 172.51C167.729 177.444 162.583 187.362 171.436 188.36C180.293 189.362 204.092 175.817 204.092 175.817C204.092 175.817 212.074 175.501 212.448 170.248C212.819 164.998 209.652 154.128 205.215 155.098Z" fill="#00939E"/>
<path d="M185.509 43.8098C175.342 44.4167 170.361 52.0616 169.667 62.2058C168.969 72.2458 179.834 86.8857 185.2 93.4498C186.697 95.2991 189.511 95.2991 191.022 93.4786C196.223 87.1946 206.541 73.5026 206.541 63.7104C206.537 53.5518 198.137 43.0558 185.509 43.8098ZM186.797 73.9299C180.928 73.6929 176.559 69.524 176.559 63.6673C176.559 57.8106 179.035 53.6129 187.467 52.1765C194.686 50.9485 198.137 57.4982 198.598 63.3405C199.145 70.4253 194.844 74.2711 186.797 73.9299Z" fill="#341B3F"/>
<path d="M186.197 96.0785C185.045 96.0785 183.962 95.5794 183.217 94.7032C178.157 88.8071 166.435 73.984 166.896 63.7321C167.13 58.4607 168.544 53.9793 170.988 50.7691C173.683 47.2285 177.534 45.2213 182.432 44.8119C187.953 44.3487 193.214 46.0831 197.249 49.6919C201.413 53.4192 203.979 58.8988 204.108 64.3533C204.212 68.6444 202.384 74.1671 198.674 80.7671C195.597 86.2432 191.868 91.3063 189.284 94.5883C188.55 95.5148 187.453 96.057 186.269 96.0785C186.243 96.0785 186.222 96.0785 186.197 96.0785ZM182.457 45.1243C177.649 45.5265 173.874 47.4907 171.236 50.9594C168.832 54.1194 167.439 58.5433 167.209 63.7465C166.752 73.8835 178.42 88.6311 183.454 94.4986C184.156 95.3209 185.178 95.7841 186.261 95.7625C187.352 95.7446 188.363 95.2419 189.036 94.3908C193.553 88.6562 204.033 74.2533 203.795 64.3605C203.665 58.9922 201.139 53.5951 197.04 49.9253C193.07 46.3739 187.892 44.6683 182.457 45.1243ZM184.883 75.2121C184.743 75.2121 184.602 75.2121 184.462 75.2085C181.558 75.1618 178.895 74.1348 176.966 72.3178C175.008 70.4757 173.892 67.8903 173.824 65.0428C173.662 58.292 176.976 54.6185 184.577 53.1355C187.172 52.6292 189.464 53.096 191.39 54.518C193.949 56.4104 195.734 60.0192 196.162 64.1666C196.5 67.4881 195.78 70.1382 194.024 72.0414C192.102 74.1169 188.95 75.2121 184.883 75.2121ZM186.539 53.2504C185.923 53.2504 185.29 53.315 184.635 53.4407C175.127 55.2972 174.029 60.6117 174.137 65.032C174.205 67.797 175.285 70.3034 177.182 72.088C179.053 73.8511 181.644 74.8458 184.469 74.8925C188.651 74.9679 191.872 73.9086 193.79 71.8259C195.482 69.991 196.176 67.4235 195.845 64.1953C195.428 60.1341 193.689 56.6079 191.199 54.7657C189.831 53.7567 188.27 53.2504 186.539 53.2504Z" fill="#341B3F"/>
<path d="M287.443 112.449C275.326 113.171 269.387 122.284 268.56 134.375C267.728 146.343 280.677 163.791 287.072 171.619C288.857 173.824 292.211 173.824 294.014 171.655C300.215 164.164 312.509 147.844 312.509 136.174C312.509 124.065 302.493 111.551 287.443 112.449ZM288.98 148.354C281.983 148.07 276.772 143.1 276.772 136.12C276.772 129.139 279.723 124.134 289.775 122.424C298.38 120.963 302.493 128.769 303.04 135.732C303.695 144.178 298.57 148.76 288.98 148.354Z" fill="#FF6D4C"/>
<path d="M289.14 173.483C289.13 173.483 289.119 173.483 289.112 173.483C287.701 173.472 286.387 172.843 285.502 171.748C282.188 167.694 277.419 161.435 273.518 154.652C268.793 146.436 266.579 139.61 266.943 134.36C267.375 128.083 269.192 122.78 272.197 119.02C275.515 114.873 280.165 112.592 286.02 112.244C292.617 111.849 298.843 114.068 303.547 118.492C308.405 123.056 311.306 129.667 311.306 136.174C311.306 147.668 299.689 163.417 292.765 171.784C291.865 172.865 290.544 173.483 289.14 173.483ZM286.042 112.654C280.309 112.995 275.756 115.225 272.517 119.275C269.563 122.97 267.778 128.195 267.353 134.389C266.515 146.451 279.989 164.351 285.819 171.49C286.625 172.488 287.827 173.062 289.112 173.07C289.122 173.07 289.13 173.07 289.14 173.07C290.422 173.07 291.627 172.506 292.444 171.522C295.611 167.698 300.185 161.791 304 155.374C308.574 147.679 310.896 141.219 310.896 136.17C310.896 129.775 308.045 123.275 303.266 118.787C298.641 114.449 292.523 112.269 286.042 112.654ZM288.694 148.584C288.32 148.584 287.942 148.576 287.557 148.558C284.091 148.418 280.946 147.119 278.693 144.896C276.411 142.641 275.152 139.524 275.152 136.123C275.152 128.062 279.215 123.774 288.324 122.227C291.437 121.699 294.157 122.32 296.414 124.072C299.415 126.406 301.438 130.759 301.83 135.721C302.14 139.696 301.204 142.835 299.052 145.057C296.81 147.374 293.243 148.584 288.694 148.584ZM290.411 122.453C289.759 122.453 289.09 122.51 288.396 122.629C283.631 123.44 280.312 125.01 278.247 127.43C276.44 129.545 275.566 132.389 275.566 136.12C275.566 139.413 276.778 142.425 278.985 144.601C281.162 146.752 284.214 148.013 287.575 148.146C292.549 148.354 296.414 147.187 298.757 144.767C300.822 142.63 301.718 139.596 301.42 135.746C301.038 130.899 299.073 126.654 296.162 124.392C294.503 123.103 292.574 122.453 290.411 122.453Z" fill="#341B3F"/>
<path d="M340.59 310.101C340.59 310.101 326.77 310.532 325.068 307.448C318.806 296.108 325.316 269.808 332.708 263.226C340.104 256.644 345.574 268.128 345.574 268.128L340.59 310.101Z" fill="#341B3F"/>
<path d="M347.326 272.074C347.326 272.074 344.8 262.814 339.182 265.708C333.568 268.602 333.848 309.933 340.586 310.101C347.326 310.27 350.133 285.095 347.326 272.074Z" fill="#00B5BE"/>
<path d="M345.44 275.568C345.44 275.568 343.903 268.39 340.492 270.634C337.08 272.878 337.249 304.919 341.345 305.052C345.44 305.181 347.146 285.662 345.44 275.568Z" fill="#00939E"/>
<path d="M287.075 322.82C287.075 322.82 268.591 324.052 266.683 320.073C260.627 307.448 254.624 273.097 275.94 261.948C294.384 252.299 299.39 276.717 299.39 276.717L287.075 322.82Z" fill="#341B3F"/>
<path d="M296.014 275.92C296.014 275.92 292.66 264.501 285.211 268.07C277.761 271.639 278.132 322.611 287.075 322.82C296.014 323.028 299.739 291.978 296.014 275.92Z" fill="#00B5BE"/>
<path d="M293.512 280.229C293.512 280.229 291.475 271.374 286.948 274.143C282.421 276.911 282.647 316.428 288.082 316.59C293.512 316.752 295.776 292.679 293.512 280.229Z" fill="#00939E"/>
<path d="M174.432 278.251C174.432 278.251 173.683 276.053 172.107 274.06C172.107 274.06 164.848 261.858 155.037 268.853C145.227 275.848 148.7 313.204 150.812 316.544C152.925 319.883 165.492 318.673 165.492 318.673C174.432 318.849 178.156 292.09 174.432 278.251Z" fill="#341B3F"/>
<path d="M168.802 224.219C168.802 224.219 138.327 236.815 140.94 265.704C140.94 265.704 138.111 266.138 137.021 271.787C135.934 277.435 141.591 303.932 145.726 304.582C149.862 305.232 268.933 308.708 271.978 306.97C275.026 305.232 278.074 301.106 277.855 291.116C277.639 281.127 280.388 260.314 289.173 261.197C296.684 261.951 298.487 286.707 296.684 302.305C295.791 310.04 306.804 299.153 316.38 298.284C325.957 297.415 332.237 298.855 332.676 293.425C333.111 287.996 331.715 264.81 339.999 264.451C347.827 264.109 348.403 280.114 348.403 280.114C349.274 279.029 350.339 266.681 347.942 261.197C345.549 255.714 349.029 233.343 343.372 230.086C337.711 226.829 341.849 193.165 309.413 186.648C276.98 180.13 211.024 182.593 198.18 189.725C185.335 196.856 168.802 224.219 168.802 224.219Z" fill="#DC823D"/>
<path d="M223.178 262.063H177.519C175.353 262.063 173.312 261.219 171.779 259.69L170.851 258.767C169.645 257.564 168.047 256.903 166.341 256.903H162.152V255.165H166.341C168.508 255.165 170.548 256.009 172.082 257.539L173.01 258.461C174.216 259.664 175.814 260.325 177.519 260.325H223.182C224.25 260.325 225.309 260.056 226.248 259.542L232.427 256.163C233.618 255.51 234.968 255.165 236.328 255.165H242.446V256.903H236.328C235.259 256.903 234.201 257.172 233.262 257.686L227.083 261.065C225.888 261.718 224.538 262.063 223.178 262.063Z" fill="#341B3F"/>
<path d="M287.708 189.01C289.771 189.201 291.203 191.14 290.793 193.168C290.073 196.713 289.094 202.58 288.961 208.796C288.745 218.786 293.967 224.869 277.423 225.953C260.879 227.037 170.577 227.432 171.228 224.391C171.88 221.349 194.703 192.36 201.235 190.335C207.033 188.536 270.985 187.477 287.708 189.01Z" fill="#341B3F"/>
<path d="M156.248 291.404C156.248 294.284 154.129 297.34 150.843 297.34C147.557 297.34 145.438 294.28 145.438 291.404C145.438 288.528 148.101 285.831 151.386 285.831C154.672 285.827 156.248 288.524 156.248 291.404Z" fill="#341B3F"/>
<path d="M260.627 291.404C260.627 294.284 258.508 297.34 255.222 297.34C251.936 297.34 249.816 294.28 249.816 291.404C249.816 288.528 252.48 285.831 255.765 285.831C259.051 285.827 260.627 288.524 260.627 291.404Z" fill="#341B3F"/>
<path d="M137.021 271.783C137.021 271.783 136.442 276.344 145.439 277.539C154.436 278.735 162.274 276.563 164.448 283.945C166.625 291.332 162.271 298.28 176.637 300.234C191.004 302.187 227.734 304.359 229.828 298.496C231.926 292.632 227.572 282.857 236.713 281.119C245.854 279.381 266.753 281.554 271.759 278.732C276.765 275.909 276.984 272.433 273.936 270.045C270.888 267.657 157.261 267.873 150.841 267.873C144.42 267.873 137.018 267.223 137.021 271.783Z" fill="#341B3F"/>
<path d="M174.459 276.34L224.307 273.607V285.034H173.48L174.459 276.34Z" fill="white"/>
<path d="M323.369 238.657C323.902 240.564 323.28 242.402 321.977 242.765C320.674 243.128 319.188 241.874 318.651 239.971C318.119 238.065 318.741 236.226 320.044 235.863C321.351 235.497 322.837 236.75 323.369 238.657Z" fill="#341B3F"/>
<path d="M340.223 240.707C341.525 240.345 342.148 238.506 341.615 236.6C341.082 234.693 339.595 233.441 338.293 233.804C336.991 234.166 336.368 236.005 336.901 237.912C337.434 239.818 338.921 241.07 340.223 240.707Z" fill="#341B3F"/>
<path d="M334.773 223.493C334.773 223.493 334.888 206.842 325.456 200.038C316.023 193.233 302.383 190.192 299.771 192.22C297.158 194.249 296.722 220.89 299.044 223.497C301.365 226.1 332.337 226.1 334.773 223.493Z" fill="#341B3F"/>
<path d="M305.72 230.625C305.72 230.625 301.477 226.607 303.65 219.874C305.828 213.141 322.587 217.701 324.329 221.07C326.071 224.438 319.215 230.19 314.641 231.171C310.071 232.147 311.05 240.403 307.566 239.968C304.082 239.534 301.318 237.146 303.028 235.623C304.741 234.101 307.897 231.928 305.72 230.625Z" fill="#00B5BE"/>
<path d="M258.736 257.255C264.186 252.856 266.267 246.406 263.383 242.849C260.499 239.292 253.743 239.974 248.293 244.373C242.842 248.772 240.762 255.222 243.645 258.779C246.529 262.336 253.285 261.654 258.736 257.255Z" fill="white"/>
<path d="M161.472 257.256C166.922 252.857 169.003 246.407 166.119 242.85C163.236 239.293 156.48 239.975 151.029 244.374C145.579 248.773 143.498 255.223 146.382 258.78C149.265 262.337 156.022 261.655 161.472 257.256Z" fill="white"/>
<path d="M296.803 249.07L303.144 249.167L303.047 255.519L296.688 256.536L296.803 249.07Z" fill="white"/>
<path d="M303.648 261.948L303.047 255.52L309.021 254.658L309.924 261.258L303.648 261.948Z" fill="white"/>
<path d="M309.119 248.274L309.021 254.658L315.158 253.082L314.938 247.186L309.119 248.274Z" fill="white"/>
<path d="M315.746 260.066L315.156 253.082L321.364 251.703L322.044 257.905L315.746 260.066Z" fill="white"/>
<path d="M321.534 245.713L321.365 251.703L326.566 250.604L327.037 245.106L321.534 245.713Z" fill="white"/>
<path d="M326.842 257.976L326.564 250.604L334.241 249.638L334.59 257.11L326.842 257.976Z" fill="white"/>
<path d="M54.949 112.22C48.921 113.362 42.0976 112.288 34.6443 109.017C29.0157 106.546 25.0246 103.645 24.8555 103.523L31.4414 94.1147L28.1484 98.8187L31.4306 94.1075C34.8603 96.5924 45.4949 102.618 53.4447 100.668C57.0544 99.7811 59.8399 97.2854 61.956 93.041L72.1119 98.3734C68.5059 105.598 62.9853 110.299 56.1511 111.961C55.7552 112.055 55.3557 112.141 54.949 112.22Z" fill="#C6777A"/>
<path d="M40.4378 104.765C40.4378 104.765 36.6914 99.1994 32.8874 97.4865C29.0799 95.7737 26.6686 97.1957 26.6686 97.1957L22.5839 95.5654C22.5839 95.5654 21.9973 111.028 32.6139 108.302C33.4525 108.09 40.4378 104.765 40.4378 104.765Z" fill="#FFA0A3"/>
<path d="M23.1941 87.5076L27.0952 109.918C27.3507 111.383 28.7687 112.353 30.2298 112.058L40.6845 109.947C42.0916 109.663 43.0129 108.313 42.7682 106.905L38.9246 84.8144C38.6763 83.3781 37.3087 82.4158 35.8692 82.6599L25.357 84.4482C23.9138 84.6959 22.9421 86.0641 23.1941 87.5076Z" fill="#341B3F"/>
<path d="M24.8265 86.8108C24.8372 86.4266 25.1575 86.1213 25.5462 86.1321C25.9313 86.1429 26.2372 86.4625 26.2264 86.8467C26.2156 87.2309 25.8953 87.5361 25.5066 87.5254C25.118 87.5146 24.8157 87.195 24.8265 86.8108Z" fill="#100B47"/>
<path d="M21.2677 93.9246C21.2677 93.9246 20.1916 91.569 22.3545 90.603C25.1076 89.3749 29.7214 90.4773 27.9867 91.2781C26.45 91.9891 24.0208 92.4774 24.0208 92.4774C24.0208 92.4774 30.2108 91.3212 30.0129 92.6821C29.8149 94.0466 24.4778 94.9695 24.4778 94.9695C24.4778 94.9695 30.6103 94.4093 30.0057 95.6374C29.4011 96.8655 24.5606 97.7345 24.5606 97.7345C24.5606 97.7345 30.5239 96.8655 29.7861 98.2767C29.0484 99.6879 25.8742 99.5119 24.5138 99.7453C23.2254 99.9644 22.6676 99.2103 22.5453 97.9535C22.5453 97.9535 21.6959 96.7757 21.8219 95.9354C21.8687 95.6123 21.5268 95.3609 21.462 95.1419C21.336 94.7289 21.2677 93.9246 21.2677 93.9246Z" fill="#FFA0A3"/>
<path d="M78.4639 239.699C78.4639 239.699 78.3667 243.628 75.7036 244.734C73.0404 245.843 65.3245 246.841 68.2072 249.366C69.8626 250.813 77.6613 249.879 79.8602 249.879C82.0627 249.879 84.1285 250.838 85.766 249.366C87.5654 247.75 85.766 239.699 85.766 239.699C85.766 239.699 83.8658 240.687 82.1563 240.644C79.6947 240.579 78.4639 239.699 78.4639 239.699Z" fill="white"/>
<path d="M109.05 239.695C109.05 239.695 108.953 243.624 106.29 244.73C103.626 245.839 95.9104 246.838 98.7931 249.362C100.449 250.809 108.247 249.875 110.446 249.875C112.649 249.875 114.714 250.834 116.352 249.362C118.151 247.746 116.352 239.695 116.352 239.695C116.352 239.695 114.452 240.683 112.742 240.64C110.281 240.575 109.05 239.695 109.05 239.695Z" fill="white"/>
<path d="M58.6666 132.034C58.6666 132.034 58.1736 148.473 63.4315 180.012C67.2283 202.778 71.7088 225.72 73.9077 236.718C74.6959 240.654 78.0104 243.53 81.9404 243.688L84.0529 243.774C88.3031 243.943 91.7508 240.302 91.4413 235.971L86.1078 161.558L84.7942 137.065L58.6666 132.034Z" fill="#341B3F"/>
<path d="M106.772 146.499C106.531 148.499 95.1908 148.258 81.3064 146.502C67.4221 144.75 56.6183 141.748 56.8594 139.748C57.1006 137.748 68.3002 137.503 82.1845 139.256C96.0689 141.008 107.013 144.498 106.772 146.499Z" fill="#281433"/>
<path d="M74.6068 143.776L104.247 238.779C105.489 242.754 109.077 245.48 113.165 245.552L114.946 245.58C119.153 245.652 122.367 241.771 121.601 237.548L105.388 148.283C105.154 147.223 104.366 146.379 103.34 146.081C97.7798 144.48 74.0634 139.844 74.6068 143.776Z" fill="#341B3F"/>
<path d="M108.663 139.791L101.944 132.002C102.063 131.927 115.256 123.618 113.993 111.786C113.334 105.617 109.628 100.654 102.977 97.0382C97.683 94.1583 92.4898 93.257 92.4395 93.2463L94.0193 83.1416C94.2965 83.1883 100.85 84.2835 107.691 88.0072C117.307 93.2391 122.932 101.078 123.955 110.676C124.782 118.429 122.065 126.139 116.098 132.972C111.819 137.873 112.006 138.164 108.663 139.791Z" fill="#C6777A"/>
<path d="M102.137 91.8023C102.137 91.8023 98.1925 80.7317 84.1462 81.2344C70.0963 81.7371 59.4904 100.158 56.8633 139.747C56.8633 139.747 79.8671 134.713 106.815 146.455C106.815 146.459 108.309 107.94 102.137 91.8023Z" fill="#FFCD4E"/>
<path d="M113.172 89.4613L102.052 97.4904C102.052 97.4904 76.4677 100.044 69.6767 98.8154C62.8857 97.5874 61.0215 92.1041 61.0215 92.1041C61.0215 92.1041 68.2552 83.8775 80.5488 81.6835C81.7041 81.4752 82.9025 81.3244 84.1441 81.2346C86.2278 81.0874 88.3152 81.152 90.3593 81.3711C102.505 82.6817 113.172 89.4613 113.172 89.4613Z" fill="#FFCD4E"/>
<path d="M113.171 89.4613C113.772 90.3303 111.775 92.8331 108.705 95.0522C105.635 97.2714 102.655 98.363 102.054 97.494C101.453 96.625 103.45 94.1222 106.52 91.9031C109.59 89.6875 112.566 88.5923 113.171 89.4613Z" fill="#341B3F"/>
<path d="M120.741 114.493C120.23 114.493 119.755 114.209 119.406 113.699C119.074 113.214 118.895 112.579 118.895 111.9C118.895 110.471 119.722 109.308 120.741 109.308C121.759 109.308 122.587 110.471 122.587 111.9C122.587 113.329 121.759 114.493 120.741 114.493ZM120.741 109.796C120.003 109.796 119.384 110.762 119.384 111.9C119.384 112.478 119.535 113.021 119.812 113.423C120.068 113.796 120.399 114.004 120.744 114.004C121.482 114.004 122.101 113.042 122.101 111.9C122.098 110.758 121.475 109.796 120.741 109.796Z" fill="#F76969"/>
<path d="M90.3366 81.3711C88.8323 81.2096 87.5295 80.2688 86.9321 78.8863L85.0607 74.5485L84.5173 73.2881L81.3215 65.8838L81.8757 73.5574L82.2104 78.1645L82.304 79.4788C82.3832 80.5488 81.631 81.4968 80.573 81.6871L80.555 81.6907C79.9863 82.6136 79.2018 84.488 81.5482 85.2349C84.305 86.1111 88.7639 83.9458 90.3654 81.3783C90.351 81.3711 90.3438 81.3711 90.3366 81.3711Z" fill="#C6777A"/>
<path d="M107.362 128.565C107.362 128.565 103.199 124.763 99.9128 125.1C96.627 125.434 92.6827 128.343 94.7628 128.565C96.843 128.788 99.5817 128.343 99.5817 128.343C99.5817 128.343 93.7767 129.575 94.6513 130.803C95.5294 132.034 100.568 130.914 100.568 130.914C100.568 130.914 93.7767 132.928 94.9824 133.822C96.188 134.717 101.334 133.151 101.334 133.151C101.334 133.151 95.0903 135.277 96.5155 136.282C97.9406 137.288 101.665 134.494 102.54 135.722C103.418 136.954 105.059 141.762 108.784 139.747L107.362 128.565Z" fill="#C6777A"/>
<path d="M87.8538 186.238L81.4803 166.905C80.0479 162.556 77.0969 158.929 73.1777 156.689L73.4261 156.258C77.4532 158.56 80.4798 162.287 81.9517 166.75L88.3253 186.083L87.8538 186.238Z" fill="white"/>
<path d="M104.103 97.6415C104.103 97.6415 103.487 95.7958 106.28 93.7418C109.073 91.6878 112.697 91.2246 112.697 91.2246L113.431 94.7472L109.486 96.4673L104.103 97.6415Z" fill="#C6777A"/>
<path d="M90.0135 64.6162C90.0135 64.6162 89.7148 65.8766 90.4418 68.4584C91.5034 72.236 87.1776 73.8124 86.0728 72.7351C85.936 72.6023 86.116 66.1782 86.116 66.1782L87.4979 65.3595L90.0135 64.6162Z" fill="#341B3F"/>
<path d="M85.0652 74.4193C85.0652 74.4624 85.0616 74.5055 85.058 74.545C84.8745 77.0191 82.2221 78.1753 82.2221 78.1753L82.2077 78.161L81.873 73.5539C82.6828 73.2559 83.838 72.9542 84.5146 73.2846C84.8673 73.4605 85.0904 73.8053 85.0652 74.4193Z" fill="#341B3F"/>
<path d="M80.9687 76.003C84.9598 76.003 88.1952 72.0207 88.1952 67.1084C88.1952 62.1961 84.9598 58.2139 80.9687 58.2139C76.9776 58.2139 73.7422 62.1961 73.7422 67.1084C73.7422 72.0207 76.9776 76.003 80.9687 76.003Z" fill="#C6777A"/>
<path d="M78.1076 60.2786C78.3092 60.5515 77.1719 65.1263 85.6688 66.2215C94.1657 67.3167 89.0625 57.0289 82.7933 56.7955C73.7422 56.4615 72.4251 62.5337 73.2924 64.7169C74.1597 66.9037 78.1076 60.2786 78.1076 60.2786Z" fill="#1C1C1C"/>
<path d="M91.2013 54.655C91.2013 54.655 87.3865 57.2045 90.3195 59.5996C93.2562 61.9983 101.328 63.0468 99.1259 67.0937C96.9234 71.1406 95.016 77.1337 98.9784 77.8842C102.941 78.6347 105.438 78.3331 107.051 81.4822C108.666 84.6278 115.857 82.6816 115.27 78.9327C114.684 75.1875 120.849 71.8875 118.207 68.4438C115.565 64.9966 109.106 61.9983 107.49 57.5025C105.881 53.0032 94.2855 52.7051 91.2013 54.655Z" fill="#1C1C1C"/>
<path d="M84.7305 64.7627C84.7305 64.7627 88.2034 68.4146 86.9977 72.1491C86.9977 72.1491 89.0131 69.9551 89.0563 69.1328C89.0995 68.3141 88.5668 65.3552 88.5668 65.3552L84.7305 64.7627Z" fill="#341B3F"/>
<path d="M87.2281 68.4475C86.4111 69.2268 85.2667 69.3057 84.6729 68.6271C84.0791 67.9448 84.2626 66.7598 85.0796 65.9806C85.8965 65.2014 87.0409 65.1224 87.6348 65.8011C88.2322 66.4833 88.0486 67.6683 87.2281 68.4475Z" fill="#FFA0A3"/>
<path d="M113.517 82.6993C113.496 82.6993 113.474 82.6958 113.456 82.6886C112.43 82.2936 111.822 81.7945 111.595 81.166C111.25 80.2073 111.84 79.1552 112.466 78.0456C113.013 77.0725 113.582 76.0634 113.445 75.1621C113.283 74.0957 111.88 73.8479 110.393 73.5822C109.141 73.3595 107.845 73.1297 107.331 72.3325C107.086 71.9519 107.039 71.4707 107.187 70.8998C107.349 70.2678 107.55 69.704 107.745 69.1582C108.58 66.8098 109.238 64.9569 105.549 60.7089C100.817 55.2616 96.8977 54.9995 93.3672 55.5273C92.9534 55.5884 91.9097 56.127 91.9133 56.6046C91.9169 56.8524 92.2552 57.4664 95.3142 57.8506C95.3718 57.8614 99.6652 58.8632 101.731 63.4811C102.832 65.9444 101.267 68.5765 100.011 70.6951C99.1686 72.1171 98.438 73.3416 98.6647 74.1639C98.7475 74.4619 98.9562 74.6989 99.3053 74.8892C100.162 75.3525 101.123 75.6146 102.051 75.8624C104.441 76.5087 106.913 77.173 107.223 81.4713C107.23 81.5646 107.158 81.6472 107.064 81.6544C106.967 81.6652 106.888 81.5898 106.881 81.4964C106.589 77.4423 104.34 76.8391 101.961 76.1963C101.015 75.9414 100.032 75.6756 99.1398 75.1909C98.7115 74.9575 98.438 74.6451 98.33 74.2572C98.0637 73.2949 98.8267 72.0094 99.7084 70.5192C100.99 68.3646 102.44 65.9193 101.411 63.6211C99.4133 59.1577 95.289 58.1953 95.2494 58.1882C92.7806 57.8794 91.5714 57.3623 91.5606 56.6082C91.5498 55.8469 92.8526 55.2544 93.3061 55.1862C96.9337 54.644 100.957 54.9097 105.801 60.4827C109.623 64.8815 108.932 66.8206 108.061 69.2731C107.871 69.8118 107.673 70.3719 107.511 70.986C107.385 71.4671 107.417 71.8478 107.611 72.1494C108.043 72.8209 109.263 73.0399 110.444 73.2482C111.984 73.5211 113.578 73.8048 113.776 75.1155C113.931 76.1353 113.334 77.1946 112.758 78.218C112.171 79.2593 111.617 80.2432 111.912 81.0547C112.103 81.5862 112.646 82.0171 113.571 82.3726C113.661 82.4085 113.704 82.5054 113.668 82.5952C113.65 82.6563 113.586 82.6993 113.517 82.6993Z" fill="white"/>
<path d="M85.7348 63.524H85.7312C82.4635 63.4558 80.8404 60.8883 80.772 60.7806C80.7216 60.7016 80.7468 60.5938 80.8296 60.5436C80.9088 60.4933 81.0167 60.5184 81.0671 60.5974C81.0815 60.6226 82.665 63.1146 85.742 63.1793C85.8356 63.1829 85.9112 63.2583 85.9112 63.3552C85.904 63.4486 85.8284 63.524 85.7348 63.524Z" fill="white"/>
<path d="M99.6254 128.454L99.5391 128.228C99.6074 128.202 101.209 127.614 102.094 128.242L101.954 128.439C101.173 127.886 99.6434 128.45 99.6254 128.454Z" fill="#F76969"/>
<path d="M100.615 131.026L100.525 130.799C100.59 130.774 102.13 130.178 103.538 130.803L103.437 131.026C102.123 130.444 100.63 131.022 100.615 131.026Z" fill="#F76969"/>
<path d="M101.377 133.262L101.291 133.036C101.37 133.008 103.263 132.307 104.152 133.058L103.994 133.245C103.216 132.587 101.395 133.259 101.377 133.262Z" fill="#F76969"/>
<path d="M58.918 141.542C58.918 141.542 65.3707 140.648 75.0588 141.363C90.066 142.469 102.813 145.938 102.813 145.938L98.0483 146.735L68.2174 147.913L62.2145 143L58.918 141.542Z" fill="#341B3F"/>
<path d="M68.5334 91.3836L65.2207 97.5605L65.5253 97.7232L68.838 91.5462L68.5334 91.3836Z" fill="#341B3F"/>
</g>
<defs>
<linearGradient id="paint0_linear_318_2" x1="184.999" y1="550.605" x2="184.999" y2="-83.3953" gradientUnits="userSpaceOnUse">
<stop stop-color="white"/>
<stop offset="1" stop-color="#E06C6C"/>
</linearGradient>
</defs>
</svg>
