<svg width="370" height="612" viewBox="0 0 370 612" fill="none" xmlns="http://www.w3.org/2000/svg">
<mask id="mask0_318_192" style="mask-type:alpha" maskUnits="userSpaceOnUse" x="0" y="0" width="370" height="612">
<rect width="370" height="612" fill="white"/>
</mask>
<g mask="url(#mask0_318_192)">
<path d="M369 0H1V600H369V0Z" fill="white"/>
<path d="M369 0H1V635H369V0Z" fill="url(#paint0_linear_318_192)"/>
</g>
<path opacity="0.2" d="M142.518 165.176L54.5937 216.269C50.4013 218.7 50.4205 224.768 54.6128 227.18L227.991 327.279C236.51 332.199 247 332.18 255.5 327.241L323.955 287.461C330.694 283.537 330.674 273.812 323.936 269.907L142.518 165.176Z" fill="#47784A"/>
<path d="M259.768 199.479V207.079C259.768 207.806 261.165 207.787 261.758 207.768L263.711 203.48C264.381 202.676 264.955 200.972 264.974 199.728L265.032 195.42C265.032 194.846 265.606 194.348 265.376 194.253C265.089 194.138 264.63 194.023 264.362 194.234L260.495 197.43C260.131 197.794 259.768 198.77 259.768 199.479Z" fill="#8E8E8E"/>
<path d="M261.436 199.479V207.079C261.436 207.806 261.704 207.998 262.048 207.519L264.652 203.48C265.226 202.676 265.704 200.992 265.724 199.728L265.762 195.421C265.781 194.368 265.436 193.947 264.977 194.445L262.067 197.45C261.742 197.795 261.436 198.771 261.436 199.479Z" fill="#B3B3B3"/>
<path d="M109.132 200.264L72.5116 221.398C70.3293 218.01 71.8416 207.041 72.5116 197.833L109.132 176.699V200.264Z" fill="#5E5E5E"/>
<path d="M235.706 274.081L199.086 295.215C196.904 291.826 198.416 280.857 199.086 271.65L235.706 250.516V274.081Z" fill="#5E5E5E"/>
<path d="M81.7227 174.92C104.771 159.816 127.015 146.224 147.268 136.404L172.384 135.562L237.968 170.076L267.467 208.86L200.409 254.267L165.263 206.295L105.709 176.489L81.7227 174.92Z" fill="#D9AF77"/>
<path d="M80.1895 185.506L81.7209 179.055H106.779L166.333 211.617L192.119 250.726L80.1895 185.506Z" fill="#D9A664"/>
<path d="M226.806 277.831C222.308 275.228 218.211 274.979 215.263 276.702L206.477 281.813C203.586 283.478 201.767 287.077 201.748 292.207C201.71 302.506 208.965 315.045 217.924 320.214C222.71 322.989 227.017 323.066 230.003 320.979C229.831 321.113 229.659 321.247 229.467 321.343L238.254 316.232C241.164 314.547 242.963 310.948 242.982 305.837C243.001 295.538 235.765 283 226.806 277.831Z" fill="black"/>
<path d="M218.017 282.942C226.976 288.111 234.212 300.65 234.174 310.949C234.136 321.248 226.861 325.402 217.902 320.214C208.943 315.045 201.707 302.507 201.727 292.208C201.765 281.928 209.058 277.774 218.017 282.942ZM217.922 314.605C224.181 318.223 229.273 315.332 229.293 308.115C229.312 300.918 224.258 292.15 217.998 288.532C211.738 284.914 206.627 287.824 206.608 295.022C206.589 302.239 211.662 310.987 217.922 314.605Z" fill="#333333"/>
<path d="M217.977 292.552C222.304 295.06 225.826 301.129 225.807 306.106C225.788 311.083 222.265 313.093 217.939 310.585C213.593 308.077 210.09 302.009 210.109 297.032C210.109 292.055 213.651 290.045 217.977 292.552Z" fill="white"/>
<path d="M218 288.532C224.259 292.15 229.313 300.918 229.294 308.116C229.275 315.313 224.183 318.223 217.923 314.605C211.663 310.987 206.59 302.22 206.609 295.022C206.629 287.824 211.721 284.933 218 288.532ZM217.942 310.604C222.268 313.112 225.81 311.102 225.81 306.125C225.829 301.148 222.307 295.079 217.98 292.572C213.635 290.064 210.113 292.074 210.113 297.051C210.093 302.028 213.597 308.097 217.942 310.604Z" fill="#CCCCCC"/>
<path d="M226.805 277.831C222.306 275.228 218.209 274.979 215.261 276.702L206.475 281.813C209.423 280.09 213.5 280.339 218.018 282.942C226.977 288.111 234.213 300.649 234.194 310.948C234.175 316.06 232.375 319.658 229.465 321.343L238.252 316.232C241.162 314.547 242.961 310.948 242.98 305.837C243 295.538 235.763 283 226.805 277.831Z" fill="black"/>
<path d="M100.539 205.509C96.0402 202.905 91.9436 202.656 88.9956 204.379L80.2089 209.49C77.3184 211.156 75.4998 214.755 75.4806 219.885C75.4423 230.184 82.6975 242.723 91.6373 247.891C96.4231 250.667 100.73 250.744 103.717 248.657C103.544 248.791 103.372 248.925 103.181 249.021L111.967 243.91C114.877 242.225 116.676 238.626 116.696 233.515C116.734 223.216 109.498 210.677 100.539 205.509Z" fill="black"/>
<path d="M91.7545 210.619C100.713 215.788 107.95 228.326 107.93 238.625C107.892 248.924 100.618 253.078 91.6588 247.891C82.6999 242.722 75.4638 230.183 75.5021 219.884C75.5021 209.605 82.7956 205.451 91.7545 210.619ZM91.6588 242.282C97.9186 245.9 103.011 243.009 103.03 235.792C103.049 228.594 97.9952 219.827 91.7354 216.209C85.4756 212.591 80.3644 215.501 80.3453 222.698C80.3261 229.896 85.3991 238.664 91.6588 242.282Z" fill="#333333"/>
<path d="M91.7155 220.23C96.0419 222.738 99.5642 228.806 99.545 233.783C99.5259 238.761 96.0035 240.771 91.6772 238.263C87.3318 235.755 83.8286 229.687 83.8477 224.71C83.8669 219.732 87.3892 217.722 91.7155 220.23Z" fill="white"/>
<path d="M91.73 216.21C97.9898 219.828 103.044 228.595 103.024 235.793C103.005 242.991 97.9132 245.901 91.6534 242.282C85.3937 238.664 80.3208 229.897 80.3399 222.699C80.359 215.501 85.4703 212.592 91.73 216.21ZM91.6725 238.282C95.9989 240.789 99.5403 238.779 99.5403 233.802C99.5595 228.825 96.0372 222.757 91.7109 220.249C87.3654 217.741 83.843 219.751 83.843 224.728C83.8239 229.706 87.3271 235.774 91.6725 238.282Z" fill="#CCCCCC"/>
<path d="M100.535 205.509C96.0363 202.905 91.9397 202.656 88.9917 204.379L80.2051 209.49C83.1531 207.768 87.2306 208.016 91.7483 210.62C100.707 215.789 107.943 228.327 107.924 238.626C107.905 243.737 106.106 247.336 103.196 249.021L111.983 243.91C114.892 242.225 116.692 238.626 116.711 233.515C116.73 223.216 109.494 210.677 100.535 205.509Z" fill="black"/>
<path d="M249.7 292.095L197.057 249.502L166.333 209.569L106.779 175.189L75.6329 176.49L50.2492 165.56L50.1152 193.834L57.1216 210.201L72.5126 221.419C72.3594 220.289 72.2637 219.16 72.2637 218.05C72.2637 207.215 79.8635 202.831 89.2436 208.249C98.6237 213.666 106.223 226.817 106.223 237.652C106.223 239.011 106.109 240.275 105.879 241.423L199.105 295.234C198.876 293.818 198.761 292.42 198.761 291.08C198.761 280.245 206.361 275.862 215.741 281.279C225.121 286.697 232.721 299.848 232.721 310.683C232.721 312.042 232.606 313.305 232.376 314.454L233.352 315.028L254.122 322.475V313.727L249.7 292.095ZM106.07 195.155L88.8799 184.722V181.448L106.07 180.74V195.155ZM137.924 214.47L108.884 196.839V181.257L137.924 198.026V214.47ZM144.376 218.394V201.759L165.069 213.704L186.95 244.237L144.376 218.394Z" fill="#8E8E8E"/>
<path d="M325.72 272.337L321.336 250.725L249.703 292.074L254.087 313.686C281.959 300.975 306.749 287.652 325.72 272.337Z" fill="#E6E6E6"/>
<path d="M325.717 272.338V281.086C308.01 295.061 282.435 308.786 254.084 322.435V313.687C282.684 300.497 307.053 286.887 325.717 272.338Z" fill="#8E8E8E"/>
<path d="M268.692 208.152L321.335 250.746C302.058 266.634 277.919 280.302 249.702 292.094L197.059 249.501L268.692 208.152Z" fill="#B3B3B3"/>
<path d="M256.367 305.244C260.062 303.502 263.795 301.683 267.508 299.846L268.255 303.119C264.407 305.014 260.713 306.795 257.018 308.537L256.367 305.244Z" fill="#FCEE21"/>
<path d="M267.028 298.182C263.812 299.79 260.538 301.398 257.188 302.987C255.81 303.638 254.164 302.814 253.857 301.321L253.819 301.149L252.498 294.659C252.288 293.568 252.862 292.477 253.896 292.037C257.035 290.697 260.098 289.319 263.123 287.94C263.276 287.864 263.41 287.806 263.563 287.73C264.922 287.098 266.511 287.864 266.836 289.338L268.272 295.54C268.521 296.612 268.004 297.703 267.028 298.182Z" fill="white"/>
<path d="M270.07 288.4C283.911 281.776 296.564 274.617 307.782 267.094L310.022 277.45C299.283 284.648 286.954 291.75 272.502 299.101L270.07 288.4Z" fill="#333333"/>
<path d="M272.021 289.337L273.687 296.611C274.051 296.42 274.414 296.228 274.778 296.037L273.113 288.801C272.749 288.973 272.385 289.164 272.021 289.337Z" fill="#8E8E8E"/>
<path d="M274.855 287.901L276.502 295.137C276.865 294.946 277.229 294.754 277.593 294.563L275.947 287.365C275.583 287.538 275.219 287.71 274.855 287.901Z" fill="#8E8E8E"/>
<path d="M277.666 286.465L279.293 293.663C279.657 293.471 280.021 293.261 280.384 293.069L278.738 285.891C278.374 286.082 278.03 286.273 277.666 286.465Z" fill="#8E8E8E"/>
<path d="M280.428 285.009L282.036 292.188C282.399 291.996 282.763 291.786 283.127 291.594L281.5 284.454C281.155 284.646 280.791 284.837 280.428 285.009Z" fill="#8E8E8E"/>
<path d="M283.162 283.574L284.751 290.715C285.115 290.504 285.478 290.313 285.842 290.102L284.234 283C283.89 283.191 283.526 283.383 283.162 283.574Z" fill="#8E8E8E"/>
<path d="M285.863 282.138L287.433 289.24C287.797 289.029 288.16 288.819 288.524 288.608L286.935 281.525C286.572 281.736 286.208 281.947 285.863 282.138Z" fill="#8E8E8E"/>
<path d="M288.502 280.682L290.053 287.765C290.416 287.555 290.78 287.344 291.144 287.134L289.574 280.089C289.21 280.299 288.866 280.491 288.502 280.682Z" fill="#8E8E8E"/>
<path d="M291.105 279.247L292.656 286.292C293.02 286.081 293.383 285.871 293.747 285.641L292.177 278.635C291.814 278.845 291.45 279.037 291.105 279.247Z" fill="#8E8E8E"/>
<path d="M293.654 277.794L295.186 284.8C295.549 284.59 295.913 284.36 296.277 284.149L294.726 277.162C294.363 277.392 294.018 277.602 293.654 277.794Z" fill="#8E8E8E"/>
<path d="M296.158 276.357L297.67 283.345C298.034 283.115 298.398 282.904 298.762 282.675L297.23 275.726C296.866 275.936 296.503 276.147 296.158 276.357Z" fill="#8E8E8E"/>
<path d="M298.611 274.901L300.104 281.85C300.468 281.62 300.832 281.391 301.196 281.18L299.683 274.27C299.32 274.461 298.956 274.691 298.611 274.901Z" fill="#8E8E8E"/>
<path d="M301.006 273.448L302.48 280.359C302.844 280.129 303.207 279.9 303.571 279.67L302.059 272.778C301.714 273.008 301.35 273.238 301.006 273.448Z" fill="#8E8E8E"/>
<path d="M303.34 271.992L304.795 278.884C305.158 278.654 305.522 278.424 305.886 278.175L304.393 271.322C304.048 271.552 303.684 271.763 303.34 271.992Z" fill="#8E8E8E"/>
<path d="M306.672 269.849C306.327 270.078 305.964 270.308 305.619 270.519L307.055 277.372C307.419 277.142 307.782 276.893 308.146 276.664L306.672 269.849Z" fill="#8E8E8E"/>
<path d="M314.271 273.123C316.913 271.342 319.478 269.562 321.929 267.801L322.503 270.634C320.11 272.453 317.583 274.309 314.922 276.147L314.271 273.123Z" fill="#FCEE21"/>
<path d="M321.833 265.79C319.708 267.341 317.525 268.872 315.286 270.404C313.888 271.342 311.993 270.614 311.629 268.968L311.572 268.7L310.366 262.995C310.155 262.076 310.538 261.119 311.304 260.583C313.505 259.014 315.669 257.425 317.755 255.817C319.133 254.764 321.143 255.51 321.488 257.214L322.751 263.416C322.924 264.316 322.579 265.235 321.833 265.79Z" fill="white"/>
<path d="M263.238 296.554C260.156 298.085 257.016 299.617 253.819 301.148L252.498 294.659C252.288 293.567 252.862 292.476 253.896 292.036C257.035 290.696 260.098 289.318 263.123 287.939L264.501 293.912C264.731 294.984 264.214 296.075 263.238 296.554Z" fill="#FCEE21"/>
<path d="M318.042 264.145C315.956 265.676 313.792 267.207 311.572 268.701L310.366 262.996C310.155 262.077 310.538 261.12 311.304 260.584C313.505 259.014 315.669 257.425 317.755 255.817L318.961 261.771C319.153 262.671 318.789 263.609 318.042 264.145Z" fill="#FCEE21"/>
<path d="M197.057 249.501C224.795 237.192 249.145 223.581 268.69 208.152L237.965 168.22L166.332 209.569L197.057 249.501ZM197.707 246.208L170.084 210.315C195.678 197.891 218.612 185.046 237.295 171.512L264.919 207.405C246.178 220.844 223.34 233.708 197.707 246.208Z" fill="white"/>
<path d="M178.414 133.838L237.968 168.219C218.423 183.055 193.978 196.704 166.335 209.568L106.781 175.187C130.117 160.198 153.969 146.357 178.414 133.838Z" fill="#B3B3B3"/>
<path d="M106.78 175.187C130.25 160.294 154.102 146.453 178.414 133.838L147.268 135.12C123.167 146.97 99.3147 160.964 75.6348 176.469L106.78 175.187ZM106.053 172.679L85.7997 173.521C104.828 160.16 125.502 148.138 147.995 137.609L168.249 136.767C146.942 147.219 126.287 159.356 106.053 172.679Z" fill="white"/>
<path opacity="0.2" d="M306.748 259.839L256.536 218.682L253.703 220.539L303.934 261.753C304.872 261.122 305.81 260.471 306.748 259.839Z" fill="white"/>
<path opacity="0.2" d="M265.241 212.248L258.369 217.436L308.313 258.727C311.051 256.794 313.712 254.841 316.258 252.87L265.241 212.248Z" fill="white"/>
<path d="M121.864 124.19L147.267 135.121C122.917 147.143 99.0839 161.079 75.6337 176.47L50.25 165.539L121.864 124.19Z" fill="#B3B3B3"/>
<path d="M139.722 239.834L139.684 225.611L139.627 197.375L107.026 178.558L86.8301 179.4V185.736L89.2804 196.514L91.2904 205.339C96.4016 208.765 100.766 213.532 104.04 219.237C107.753 225.707 110.051 233.383 110.376 241.71L139.761 258.671L139.722 239.834ZM108.098 181.831L137.138 198.6V215.044L108.098 197.413V181.831ZM88.9932 185.851L88.955 182.003L105.284 181.314V195.748L88.9932 185.851Z" fill="white"/>
<path d="M165.204 212.173L141.275 198.352V259.552L192.024 288.841V249.597L165.204 212.173ZM143.592 202.352L164.304 214.298L186.166 244.831L143.592 219.007V202.352Z" fill="white"/>
<path d="M150.216 231.106L143.938 227.487V224.271L150.216 227.89V231.106Z" fill="#8E8E8E"/>
<path d="M98.4469 201.05L92.168 197.432V194.216L98.4469 197.853V201.05Z" fill="#8E8E8E"/>
<path d="M208.544 240.139C208.238 240.139 207.931 239.967 207.797 239.68C207.587 239.259 207.759 238.761 208.161 238.55C215.608 234.779 222.71 231.008 229.314 227.313C229.716 227.084 230.233 227.237 230.463 227.639C230.692 228.041 230.539 228.558 230.137 228.787C223.533 232.482 216.393 236.272 208.927 240.043C208.793 240.12 208.659 240.139 208.544 240.139Z" fill="black"/>
<path d="M236.968 224.767C236.681 224.767 236.394 224.614 236.241 224.346C236.011 223.944 236.145 223.427 236.547 223.197C242.558 219.694 248.32 216.172 253.642 212.707C254.025 212.458 254.561 212.573 254.81 212.956C255.058 213.339 254.944 213.875 254.561 214.124C249.22 217.608 243.439 221.149 237.409 224.652C237.255 224.729 237.102 224.767 236.968 224.767Z" fill="black"/>
<path d="M219.779 233.879C219.588 233.879 219.416 233.745 219.377 233.553C219.32 233.324 219.473 233.094 219.703 233.056L230.729 230.586C230.959 230.529 231.189 230.682 231.227 230.912C231.284 231.141 231.131 231.371 230.901 231.409L219.875 233.879C219.856 233.879 219.818 233.879 219.779 233.879Z" fill="black"/>
<path d="M243.522 220.326C243.33 220.326 243.158 220.192 243.12 220.001C243.062 219.771 243.215 219.541 243.445 219.503L254.471 217.034C254.701 216.976 254.931 217.129 254.969 217.359C255.026 217.589 254.873 217.818 254.644 217.857L243.617 220.326C243.579 220.326 243.56 220.326 243.522 220.326Z" fill="black"/>
<path d="M325.701 273.276C308.702 286.982 285.807 300.095 253.704 314.74L251.254 313.687L249.703 314.548L250.124 322.129L252.402 323.182L254.814 322.014C289.023 305.532 311.21 292.725 326.754 280.474L327.405 279.976V273.142L325.72 272.338L325.701 273.276Z" fill="white"/>
<path d="M326.771 273.639C309.772 287.346 286.896 300.574 254.774 315.218L252.84 316.099L249.682 314.548L250.103 322.129L252.381 323.181L254.793 322.014C289.001 305.532 311.188 292.725 326.732 280.473L327.383 279.976V273.142L326.771 273.639Z" fill="white"/>
<path d="M50.1534 185.295V184.453L47.9902 185.391L49.7323 193.757L55.0157 199.059L56.4323 198.179L56.4706 189.813L50.1534 185.295Z" fill="white"/>
<path d="M47.9902 185.39V193.602L55.0157 199.058V190.577L47.9902 185.39Z" fill="#CCCCCC"/>
<path d="M139.725 239.834L104.043 219.236C100.769 213.532 96.4044 208.765 91.2933 205.339L89.2832 196.514L139.687 225.611L139.725 239.834Z" fill="#DD2230"/>
<path d="M192.024 255.837V270.041L141.275 240.752V226.548L192.024 255.837Z" fill="#DD2230"/>
<path d="M187.2 243.202C187.717 243.528 188.004 244.121 187.927 244.715L187.161 251.702C187.085 252.448 186.491 253.023 185.745 253.099L178.7 253.808C177.533 253.922 176.556 253.003 176.518 251.778L176.422 247.548C176.403 246.514 177.073 245.557 178.03 245.289L185.898 243.011C186.338 242.896 186.817 242.953 187.2 243.202Z" fill="#8E8E8E"/>
<path d="M188.024 245.097V252.697C188.024 253.424 187.45 254.018 186.722 254.056L179.257 254.42C178.031 254.477 176.998 253.52 176.959 252.295L176.864 248.064C176.845 247.03 177.553 246.112 178.567 245.882L186.665 244.044C187.373 243.872 188.024 244.389 188.024 245.097Z" fill="#B3B3B3"/>
<path opacity="0.5" d="M188.334 189.257L195.704 223.217L212.78 236.406L218.752 230.95L203.151 221.513L196.585 190.501L188.334 189.257Z" fill="#D9A664"/>
<path opacity="0.5" d="M209.957 176.067L230.172 192.262L261.662 209.491L240.375 217.761L224.774 208.323L218.208 177.312L209.957 176.067Z" fill="#D9A664"/>
<path opacity="0.75" d="M257.7 204.954L237.178 176.297L217.27 164.812V180.394L257.7 204.954Z" fill="white"/>
<path d="M238.299 210.504L240.5 211.461C241.132 212.131 240.998 212.552 240.309 212.782L239.026 212.629L238.299 210.504Z" fill="#FFB294"/>
<path d="M225.852 190.213L234.428 198.425L248.02 205.26C249.781 204.762 250.623 204.149 249.494 202.407L238.065 193.046L231.097 183.819C229.662 179.972 226.752 177.349 224.053 177.272L225.852 190.213Z" fill="#356185"/>
<path d="M246.413 251.318C246.662 253.117 245.858 254.342 246.202 256.008C246.872 257.635 249.112 257.98 250.51 257.999C253.19 258.075 254.97 259.358 258.492 259.32C260.809 259.301 261.67 258.516 261.938 257.156C261.919 256.544 261.498 255.97 260.675 255.434C260.675 255.434 255.525 253.538 255.391 253.462C255.257 253.404 252.366 251.299 252.309 251.146C252.252 250.992 250.912 247.394 250.912 247.394L245.59 248.178L246.413 251.318Z" fill="black"/>
<path d="M220.545 217.357L237.333 227.388C238.597 234.395 241.507 242.952 245.182 252.236C248.551 252.944 251.652 253.365 252.303 251.145C250.504 240.329 248.704 229.858 246.828 223.464C242.598 216.247 233.734 210.849 224.259 205.699L220.545 217.357Z" fill="#172935"/>
<path d="M235.577 259.185C235.845 260.065 236.19 260.448 236.151 262.19C236.477 263.99 237.319 264.794 238.717 265.138C241.416 265.808 241.435 267.11 245.072 267.435C247.235 267.627 250.164 266.612 250.738 265.291C250.853 264.66 250.336 263.798 249.628 263.09C249.628 263.09 245.091 260.984 244.976 260.889C244.861 260.793 241.339 258.783 241.167 258.745C240.727 258.649 238.64 254.342 238.965 254.284L234.275 255.835L235.577 259.185Z" fill="black"/>
<path d="M205.293 208.207C203.915 210.734 204.145 214.371 205.504 218.774C207.246 222.009 216.473 228.001 224.57 233.591C226.312 242.052 229.93 251.068 234.716 260.41C237.607 260.716 240.076 260.506 241.129 258.687C239.425 254.801 237.147 243.162 234.678 232.48C234.39 231.217 233.797 230.03 232.974 229.035L224.149 217.989C223.134 216.706 222.924 215.003 223.498 213.471C224.398 211.098 224.417 208.322 224.226 205.699L205.293 208.207Z" fill="#172935"/>
<path d="M215.44 177.789C211.879 178.804 205.198 181.924 203.782 185.638C202.576 188.796 203.341 193.486 203.341 193.486C204.719 199.172 204.968 203.938 204.432 208.571C204.337 209.394 204.643 210.256 205.313 210.753C210.52 214.812 219.919 211.174 223.652 207.193C224.035 206.791 224.265 206.255 224.265 205.699C224.284 202.751 225.222 199.631 226.562 196.415C226.562 196.415 227.921 192.472 227.863 189.868C227.806 183.379 224.915 177.77 224.915 177.77C224.915 177.77 219 176.774 215.44 177.789Z" fill="#25435C"/>
<path d="M225.105 177.886C223.823 187.821 210.518 209.146 202.555 221.206L203.876 222.585C211.877 211.061 225.163 189.563 226.79 178.824L225.105 177.886Z" fill="#4D4D4D"/>
<path d="M219.887 185.599C219.6 186.021 219.236 186.289 218.834 186.365C214.852 186.959 212.325 182.135 213.129 179.627C213.857 177.023 214.278 175.626 214.278 175.626L221.418 178.497C221.418 178.497 221.399 179.206 221.304 180.182C221.131 181.847 220.748 184.355 219.887 185.599Z" fill="#FFB294"/>
<path opacity="0.5" d="M219.886 185.598C219.484 185.79 219.063 185.885 218.623 185.828C215.12 185.33 214.947 178.592 214.947 178.592L221.303 180.2C221.13 181.846 220.748 184.354 219.886 185.598Z" fill="#FFB294"/>
<path d="M214.662 176.986C214.662 176.986 215.006 180.298 216.251 181.887C217.495 183.476 219.677 184.49 220.539 184.663C221.4 184.835 222.089 184.854 222.759 184.261C223.41 183.686 224.635 177.637 224.635 177.637C224.961 175.283 225.018 174.555 224.923 173.215C224.789 171.224 223.985 166.745 218.261 166.726C215.485 166.707 213.532 168.449 212.843 170.803C212.288 172.66 213.341 176.259 213.341 176.259L214.662 176.986Z" fill="#FFB294"/>
<path d="M213.183 176.621L215.652 178.421L216.073 176.851C216.169 176.085 216.897 175.568 217.662 175.722C218.926 175.99 220.917 176.219 222.927 175.549C224.841 174.918 225.32 173.769 225.32 173.769C226.717 170.419 222.525 167.107 219.06 166.724C214.848 166.265 212.762 168.849 212.398 171.319C212.092 173.597 213.183 176.621 213.183 176.621Z" fill="black"/>
<path d="M214.081 174.553C213.737 174.323 213.22 174.266 212.933 174.572C212.761 174.744 212.703 174.974 212.703 175.223C212.703 175.453 212.78 175.682 212.837 175.912C212.971 176.295 213.105 176.678 213.277 177.042C213.411 177.348 213.584 177.673 213.89 177.788C214.196 177.903 214.56 178.19 214.79 177.941C215 177.673 215.096 176.908 215.077 176.563C215.039 175.816 214.694 174.974 214.081 174.553Z" fill="#FFB294"/>
<path d="M204.851 196.187C205.98 198.484 209.043 203.902 211.168 207.558C212.508 209.893 214.767 211.578 217.389 212.19L230.445 215.426C232.397 215.866 234.216 212.076 232.263 210.927L218.308 205.835L212.278 192.397C212.278 192.397 208.411 184.089 205.004 185.122C201.596 186.156 203.185 192.76 204.851 196.187Z" fill="#356185"/>
<path d="M238.924 222.987C238.503 222.987 238.101 222.93 237.718 222.834C236.455 222.508 235.517 221.666 235 220.403C234.024 218.01 234.751 214.43 236.933 210.812C240.188 205.395 245.509 201.891 249.051 202.81C250.314 203.136 251.252 203.978 251.769 205.241C252.745 207.634 252.018 211.214 249.836 214.832C246.945 219.675 242.389 222.987 238.924 222.987ZM247.845 204.859C245.433 204.859 241.528 207.481 238.828 211.961C237.048 214.909 236.359 217.895 237.048 219.599C237.297 220.211 237.699 220.575 238.292 220.728C240.57 221.322 245.012 218.661 247.998 213.722C249.778 210.774 250.467 207.787 249.778 206.084C249.529 205.471 249.127 205.107 248.534 204.954C248.323 204.897 248.094 204.859 247.845 204.859Z" fill="#333333"/>
<path d="M230.769 214.964C229.908 213.892 230.29 212.686 231.248 211.442L232.186 211.289L234.502 210.274L237.526 209.93L237.105 210.638L238.216 211.767L235.631 216.725L233.162 216.151L230.769 214.964Z" fill="#FFB294"/>
<path d="M235.098 216.572L236.648 216.936L237.548 217.204C238.007 217.338 238.486 217.108 238.677 216.668L238.888 216.17H239.003C239.347 216.19 239.654 215.941 239.711 215.615L239.749 214.716L239.922 214.677C240.266 214.62 240.515 214.314 240.534 213.969C240.553 213.663 240.381 213.395 240.113 213.261L239.845 213.127L239.96 212.686C240.075 212.284 239.462 211.672 239.079 211.5C238.007 211.461 237.51 211.366 236.955 210.562L235.098 216.572Z" fill="#FFB294"/>
<path d="M247.332 204.895L248.519 206.522L249.897 207.805L250.471 208.322C251.275 209.011 251.773 208.015 251.218 207.422L250.089 206.312L249.399 205.431C248.691 204.838 248.002 204.78 247.332 204.895Z" fill="#FFB294"/>
<path d="M248.363 202.675L249.148 202.483L250.756 202.943L252.632 204.417C253.015 204.723 253.168 205.144 253.187 205.623C253.436 205.929 253.532 206.293 253.494 206.733C253.628 207.231 253.628 207.671 253.417 208.035C253.647 208.456 253.34 208.762 253.149 209.126L252.364 209.758L251.12 209.547C250.603 209.413 250.622 209.03 251.024 208.896L251.464 208.705L250.22 206.925L250.182 206.503C250.144 206.14 250.392 205.814 250.756 205.757C250.775 205.757 251.158 204.551 251.158 204.551C250.526 203.536 249.646 202.885 248.363 202.675Z" fill="#FFB294"/>
<path d="M186.105 207.768C187.924 207.405 203.717 213.492 212.523 217.225C215.356 218.278 217.538 214.966 215.203 212.726C207.909 206.448 185.11 193.201 180.803 194.751L186.105 207.768Z" fill="#9E1822"/>
<path d="M205.152 259.32C204.463 260.086 204.29 261.981 204.252 264.145C204.654 266.365 206.721 266.384 208.444 266.805C211.794 267.629 213.249 270.328 217.748 270.711C220.428 270.94 222.266 270.519 222.974 268.873C223.127 268.107 222.744 267.265 221.863 266.384C221.863 266.384 215.967 263.092 215.814 262.977C215.661 262.862 213.096 260.603 213.058 260.392C213.019 260.182 211.813 255.32 211.813 255.32L205.803 254.803L205.152 259.32Z" fill="black"/>
<path d="M192.671 268.7C191.886 270.595 192.269 271.055 192.403 272.529C192.633 273.314 192.882 273.697 193.112 274.769C193.38 276.109 193.131 278.291 194.968 279.765C197.132 281.794 201.611 282.273 203.181 280.435C203.257 279.478 202.817 277.315 201.783 275.515L199.161 270.136L198.912 266.154L192.671 264.853V268.7Z" fill="black"/>
<path d="M173.317 236.293C176.667 239.49 182.563 244.984 189.435 249.559C188.803 253.177 190.545 261.485 192.019 269.238C193.34 271.803 199.696 270.769 199.696 269.238C199.37 259.571 199.236 247.549 198.336 244.696C193.914 238.379 189.569 232.713 185.587 230.148L178.753 226.357L172.742 231.201L173.317 236.293Z" fill="#172935"/>
<path d="M179.023 229.842C182.373 233.038 197.764 235.623 203.259 238.781C202.627 242.399 202.78 251.971 204.254 259.724C205.575 262.289 213.002 261.619 213.002 260.088C212.677 250.42 214.534 238.571 213.634 235.738C212.045 228.54 201.899 225.936 191.007 221.801L188.097 220.921L186.049 222.069L179.023 229.842Z" fill="#172935"/>
<path d="M191.408 205.816C190.489 201.834 189.092 198.484 186.795 196.264L177.415 195.44C173.452 197.852 169.317 200.82 166.484 206.333C166.082 207.654 166.025 209.645 166.159 211.999C166.695 221.188 169.872 231.142 169.872 231.142C170.925 234.454 171.212 235.315 173.337 236.272C184.172 233.803 189.839 227.16 191.064 222.7C191.619 219.254 191.619 215.368 191.408 205.816Z" fill="#9E1822"/>
<path d="M161.623 205.988C175.368 211.788 188.289 217.933 199.928 224.576L199.009 223.178C188.519 216 176.248 209.625 162.963 203.748L161.623 205.988Z" fill="#4D4D4D"/>
<path d="M182.912 202.314C182.625 202.735 182.281 203.003 181.86 203.06C177.897 203.634 175.408 198.868 176.193 196.379C176.921 193.795 177.323 192.397 177.323 192.397L184.406 195.25C184.406 195.25 184.386 195.958 184.291 196.934C184.157 198.6 183.793 201.088 182.912 202.314Z" fill="#FFB294"/>
<path opacity="0.5" d="M182.914 202.314C182.512 202.505 182.091 202.601 181.65 202.543C178.186 202.046 177.994 195.346 177.994 195.346L184.311 196.935C184.158 198.6 183.794 201.089 182.914 202.314Z" fill="#FFB294"/>
<path d="M177.744 193.756C177.744 193.756 178.088 197.048 179.313 198.618C180.538 200.188 182.721 201.202 183.563 201.374C184.405 201.547 185.114 201.566 185.764 200.992C186.415 200.417 187.621 194.406 187.621 194.406C187.928 192.071 188.004 191.363 187.909 190.023C187.775 188.051 186.99 183.61 181.285 183.571C178.528 183.552 176.595 185.294 175.906 187.611C175.351 189.448 176.404 193.028 176.404 193.028L177.744 193.756Z" fill="#FFB294"/>
<path d="M176.269 193.412L178.72 195.211L179.141 193.661C179.236 192.895 179.964 192.378 180.71 192.55C181.974 192.818 183.926 193.029 185.936 192.378C187.832 191.765 188.31 190.598 188.31 190.598C189.689 187.286 185.534 183.974 182.089 183.611C177.916 183.17 175.829 185.716 175.484 188.167C175.197 190.406 176.269 193.412 176.269 193.412Z" fill="black"/>
<path d="M177.167 191.344C176.823 191.114 176.306 191.057 176.019 191.363C175.847 191.535 175.789 191.765 175.789 191.995C175.789 192.225 175.866 192.454 175.923 192.684C176.057 193.067 176.191 193.45 176.363 193.813C176.497 194.12 176.67 194.426 176.976 194.56C177.282 194.675 177.646 194.962 177.857 194.694C178.067 194.426 178.163 193.66 178.144 193.335C178.125 192.607 177.78 191.765 177.167 191.344Z" fill="#FFB294"/>
<path d="M182.909 237.441L185.551 239.758C186.776 240.6 187.963 241.002 189.284 241.423L191.581 243.28L192.634 243.969C193.055 244.256 193.495 243.816 193.055 243.261L190.681 241.117L190.93 240.811L192.347 241.729L193.534 242.687C194.146 243.146 194.491 242.572 194.031 241.863L192.711 240.428L191.562 239.528L191.753 239.394L192.979 240.275L194.165 241.519C194.855 242.036 195.276 241.615 194.874 240.945L193.763 239.662L192.328 238.379L192.557 238.15L193.802 238.935L195.257 240.351C195.907 240.83 196.175 240.313 195.716 239.585L194.376 237.939L191.868 236.178L192.021 236.063L192.94 236.293L193.974 236.944C194.625 237.365 195.123 236.963 194.414 236.216L193.055 235.221C193.055 235.221 190.796 234.398 190.126 234.551C189.246 234.742 186.91 235.355 186.91 235.355L185.302 234.513C184.345 233.843 181.952 236.618 182.909 237.441Z" fill="#FFB294"/>
<path d="M167.499 205.415C165.509 206.583 165.623 209.416 165.451 212.479C166.447 218.911 167.653 222.912 170.85 228.444C171.807 230.243 177.071 236.58 184.345 238.456C185.322 238.456 188.059 236.522 187.485 234.665C184.23 232.904 181.972 227.965 176.42 223.428L170.045 212.287C168.782 205.357 169.854 203.615 167.499 205.415Z" fill="#9E1822"/>
<path d="M193.77 245.289L237.913 219.35C243.465 212.018 249.897 207.903 257.401 207.903L263.508 204.304L269.748 208.783L236.516 240.963L195.894 250.63L193.77 245.289Z" fill="#8E8E8E"/>
<path d="M213.845 216.651C212.409 215.579 213.998 212.784 215.032 213.281L217.559 214.66L221.426 217.665L224.182 219.694C225.12 220.288 224.833 221.456 223.474 220.613L221.521 219.407L221.942 220.652L221.349 222.068C221.138 222.623 220.143 223.159 219.569 223.006L219.32 222.93L218.745 223.083L218.286 222.987C217.808 222.872 217.463 222.489 217.386 222.011L217.367 221.877C217.539 221.666 217.769 221.57 218.076 221.666L218.669 221.704L219.281 221.034L219.358 220.403L218.726 219.254C219.282 219.905 218.554 220.843 217.559 219.924L215.855 218.833L213.845 216.651Z" fill="#FFB294"/>
<path opacity="0.5" d="M150.33 200.514L157.011 229.898L166.334 236.751L158.6 201.758L150.33 200.514Z" fill="#D9A664"/>
<path opacity="0.5" d="M178.567 207.232L176.078 208.534L203.433 242.647L206.152 241.173L178.567 207.232Z" fill="white"/>
<path opacity="0.5" d="M188.713 201.892L180.348 206.294L207.914 240.216L215.513 236.119L188.713 201.892Z" fill="white"/>
<path opacity="0.1" d="M181.13 159.644C179.484 158.687 176.594 158.802 174.679 159.912L164.648 165.693C162.734 166.804 162.543 168.469 164.189 169.426L168.228 171.762L184.787 161.75L181.13 159.644Z" fill="#1A1A1A"/>
<path d="M170.928 171.494L180.959 165.713C182.873 164.621 184.424 162.171 184.424 160.257V150.743C184.424 148.828 182.873 148.178 180.959 149.288L170.928 155.069C169.013 156.16 167.463 158.61 167.463 160.525V170.039C167.482 171.953 169.033 172.604 170.928 171.494Z" fill="#1A1A1A"/>
<path d="M172.018 171.742L181.762 166.114C183.619 165.042 185.112 162.668 185.112 160.811V151.565C185.112 149.709 183.6 149.077 181.762 150.149L172.018 155.777C170.161 156.849 168.668 159.223 168.668 161.079V170.326C168.668 172.163 170.18 172.795 172.018 171.742Z" fill="white"/>
<path d="M181.951 166.287L171.92 172.068C170.006 173.159 168.455 172.508 168.455 170.613V161.099C168.455 159.185 170.006 156.754 171.92 155.643L181.951 149.862C183.865 148.771 185.416 149.422 185.416 151.317V160.831C185.416 162.745 183.865 165.196 181.951 166.287ZM171.939 157.041C170.791 157.711 169.872 159.166 169.872 160.314V169.828C169.872 170.977 170.81 171.36 171.939 170.709L181.97 164.928C183.119 164.258 184.037 162.803 184.037 161.654V152.14C184.037 150.991 183.099 150.609 181.97 151.259L171.939 157.041Z" fill="#DD2230"/>
<path d="M174.562 156.716L176.841 155.414V165.005L180.573 162.842V164.45L174.562 167.914V156.716Z" fill="#DD2230"/>
<path d="M115.666 221.944C115.666 222.709 115.513 223.245 115.207 223.551C114.901 223.933 114.518 223.933 114.136 223.704L112.605 222.786V211.616L114.136 212.534C114.595 212.764 114.901 213.223 115.207 213.911C115.513 214.6 115.666 215.288 115.666 216.053V221.944ZM113.6 221.791L114.212 222.097C114.365 222.174 114.518 222.174 114.595 222.021C114.671 221.868 114.748 221.715 114.748 221.409V215.594C114.748 215.365 114.671 215.059 114.595 214.829C114.518 214.6 114.365 214.37 114.212 214.294L113.6 213.988V221.791Z" fill="white"/>
<path d="M118.036 214.906C118.572 215.212 118.954 215.748 119.26 216.36C119.49 216.972 119.566 217.66 119.566 218.425V220.032C119.566 220.797 119.413 221.409 119.031 221.715L119.719 226.993L118.648 226.381L118.036 221.868C118.036 221.868 117.96 221.868 117.96 221.791L117.424 221.485V225.693L116.43 225.157V214.064L118.036 214.906ZM118.648 217.89C118.648 217.278 118.495 216.819 118.113 216.589L117.501 216.283V219.879L118.113 220.185C118.266 220.261 118.419 220.261 118.495 220.108C118.572 219.955 118.648 219.802 118.648 219.496V217.89Z" fill="white"/>
<path d="M121.633 228.064L120.639 227.528V216.436L121.633 216.971V228.064Z" fill="white"/>
<path d="M123.546 229.212L122.398 217.431L123.393 218.043L124.234 227.146L125.076 218.961L126.071 219.573L124.923 229.977L123.546 229.212Z" fill="white"/>
<path d="M127.907 231.66L126.912 231.124V220.031L127.907 220.567V231.66Z" fill="white"/>
<path d="M129.819 221.715L131.12 229.901V222.403L132.114 222.939V234.032L131.043 233.42L129.743 225.54V232.655L128.748 232.119V221.026L129.819 221.715Z" fill="white"/>
<path d="M134.485 235.637C134.026 235.408 133.72 234.949 133.414 234.26C133.108 233.572 132.955 232.883 132.955 232.118V226.075C132.955 225.31 133.108 224.774 133.414 224.468C133.72 224.162 134.103 224.086 134.485 224.315C134.944 224.545 135.25 225.004 135.556 225.692C135.862 226.381 136.015 227.069 136.015 227.834V229.135L135.021 228.523V227.222C135.021 226.993 134.944 226.687 134.868 226.457C134.791 226.228 134.638 225.998 134.485 225.922C134.332 225.845 134.179 225.845 134.103 225.998C134.026 226.151 133.95 226.304 133.95 226.61V232.654C133.95 232.883 134.026 233.189 134.103 233.419C134.179 233.648 134.332 233.801 134.485 233.954C134.638 234.031 134.791 234.031 134.868 233.878C134.944 233.725 135.021 233.572 135.021 233.266V231.124L134.485 230.818V229.135L136.015 230.053V233.954C136.015 234.719 135.862 235.255 135.556 235.561C135.25 235.867 134.944 235.867 134.485 235.637Z" fill="white"/>
<path d="M147.184 240.075C147.184 240.84 147.107 241.452 146.801 241.835C146.648 242.141 146.419 242.217 146.113 242.217C145.96 242.217 145.807 242.141 145.577 242.064C145.195 241.835 144.889 241.529 144.659 241.07C144.43 240.687 144.277 240.228 144.2 239.693C144.047 239.157 143.971 238.621 143.971 238.009L144.889 238.392C144.965 239.08 145.042 239.616 145.195 239.999C145.348 240.305 145.424 240.458 145.577 240.534C145.807 240.611 145.96 240.534 146.113 240.305C146.189 240.152 146.189 239.922 146.189 239.616C146.189 239.157 146.036 238.621 145.807 238.009C145.654 237.55 145.348 236.938 144.965 236.097C144.659 235.408 144.43 234.796 144.277 234.261C144.124 233.725 144.047 233.113 144.047 232.578C144.047 231.583 144.277 230.895 144.659 230.665C144.889 230.512 145.195 230.512 145.577 230.742C145.883 230.971 146.189 231.277 146.495 231.66C146.648 231.966 146.878 232.348 146.954 232.807C147.107 233.266 147.107 233.725 147.184 234.184L146.266 233.955C146.266 233.496 146.189 233.113 146.036 232.731C145.96 232.501 145.807 232.348 145.654 232.272C145.501 232.195 145.348 232.195 145.271 232.425C145.195 232.578 145.195 232.884 145.195 233.19C145.195 233.725 145.348 234.261 145.577 234.949C145.654 235.179 145.807 235.485 146.036 235.867C146.266 236.326 146.419 236.632 146.495 236.785C146.725 237.321 146.954 237.856 147.031 238.315C147.107 238.545 147.107 238.774 147.184 238.927C147.184 239.386 147.184 239.769 147.184 240.075Z" fill="white"/>
<path d="M149.555 244.359C149.096 244.13 148.79 243.671 148.484 242.982C148.178 242.294 148.025 241.605 148.025 240.84V234.796C148.025 234.031 148.178 233.496 148.484 233.19C148.79 232.884 149.173 232.807 149.555 233.037C150.014 233.266 150.32 233.725 150.626 234.414C150.932 235.102 151.085 235.791 151.085 236.556V237.78L150.091 237.168V235.867C150.091 235.638 150.014 235.332 149.938 235.102C149.861 234.873 149.708 234.643 149.555 234.567C149.402 234.49 149.249 234.49 149.173 234.643C149.096 234.796 149.02 234.949 149.02 235.255V241.299C149.02 241.529 149.096 241.835 149.173 242.064C149.249 242.294 149.402 242.447 149.555 242.6C149.708 242.676 149.861 242.676 149.938 242.523C150.014 242.37 150.091 242.217 150.091 241.911V240.381L151.085 240.993V242.523C151.085 243.288 150.932 243.824 150.626 244.13C150.32 244.512 149.938 244.589 149.555 244.359Z" fill="white"/>
<path d="M152.846 241.452V246.119L151.852 245.583V234.49L152.846 235.026V239.692L153.994 240.381V235.714L154.988 236.25V247.266L153.994 246.731V242.064L152.846 241.452Z" fill="white"/>
<path d="M157.282 237.55C157.741 237.78 158.047 238.239 158.353 238.927C158.659 239.616 158.812 240.304 158.812 241.069V247.113C158.812 247.878 158.659 248.413 158.353 248.719C158.047 249.026 157.665 249.102 157.282 248.872C156.823 248.643 156.517 248.184 156.211 247.495C155.905 246.807 155.752 246.118 155.752 245.353V239.31C155.752 238.545 155.905 238.009 156.211 237.703C156.517 237.321 156.899 237.244 157.282 237.55ZM157.818 240.457C157.818 240.228 157.741 239.922 157.665 239.692C157.588 239.463 157.435 239.31 157.282 239.157C157.129 239.08 156.976 239.08 156.899 239.233C156.823 239.386 156.746 239.539 156.746 239.845V245.889C156.746 246.118 156.823 246.424 156.899 246.654C156.976 246.883 157.129 247.036 157.282 247.189C157.435 247.266 157.588 247.266 157.665 247.113C157.741 246.96 157.818 246.807 157.818 246.501V240.457Z" fill="white"/>
<path d="M161.184 239.769C161.643 239.998 161.949 240.457 162.255 241.146C162.561 241.834 162.714 242.523 162.714 243.288V249.332C162.714 250.097 162.561 250.632 162.255 250.938C161.949 251.244 161.567 251.321 161.184 251.091C160.725 250.862 160.419 250.403 160.113 249.714C159.807 249.026 159.654 248.337 159.654 247.572V241.528C159.654 240.763 159.807 240.228 160.113 239.922C160.419 239.539 160.802 239.539 161.184 239.769ZM161.72 242.676C161.72 242.447 161.643 242.141 161.567 241.911C161.49 241.681 161.337 241.528 161.184 241.375C161.031 241.299 160.878 241.299 160.802 241.452C160.725 241.605 160.649 241.758 160.649 242.064V248.108C160.649 248.337 160.725 248.643 160.802 248.873C160.878 249.102 161.031 249.255 161.184 249.408C161.337 249.485 161.49 249.485 161.567 249.332C161.643 249.179 161.72 249.026 161.72 248.72V242.676Z" fill="white"/>
<path d="M166.158 253.845L163.557 252.315V241.299L164.551 241.834V251.244L166.234 252.239V253.845H166.158Z" fill="white"/>
<path opacity="0.2" d="M54.3864 276.838C63.4364 276.838 70.7728 272.604 70.7728 267.381C70.7728 262.159 63.4364 257.925 54.3864 257.925C45.3364 257.925 38 262.159 38 267.381C38 272.604 45.3364 276.838 54.3864 276.838Z" fill="#47784A"/>
<path d="M44.5247 261.618C39.0881 264.758 39.0881 269.85 44.5247 273.008C49.9613 276.148 58.8054 276.148 64.242 273.008C69.6786 269.869 69.6786 264.777 64.242 261.618C58.7863 258.479 49.9613 258.479 44.5247 261.618Z" fill="#C76800"/>
<path d="M44.5247 259.762C39.0881 262.901 39.0881 267.993 44.5247 271.152C49.9613 274.291 58.8054 274.291 64.242 271.152C69.6786 268.012 69.6786 262.92 64.242 259.762C58.7863 256.622 49.9613 256.622 44.5247 259.762Z" fill="#FFA542"/>
<path d="M57.3145 232.751L64.2634 264.873C64.2634 266.328 63.3063 267.783 61.3728 268.912C57.5251 271.133 51.2653 271.133 47.3984 268.912C45.465 267.802 44.5078 266.347 44.5078 264.873L51.4567 232.751H57.3145Z" fill="#F98200"/>
<path d="M52.4726 231.526C51.2857 232.177 51.0368 233.383 52.128 234.225C53.3149 235.144 55.4589 235.144 56.6457 234.225C57.7177 233.383 57.488 232.177 56.3012 231.526C55.1909 230.913 53.5637 230.913 52.4726 231.526Z" fill="#F98200"/>
<path d="M57.3184 232.75L64.2673 264.872C64.2673 266.327 63.3102 267.782 61.3767 268.911C57.529 271.132 51.2692 271.132 47.4023 268.911C45.4689 267.801 44.5117 266.346 44.5117 264.872L51.4606 232.75H57.3184Z" fill="#F98200"/>
<path d="M99.9326 90.7473C98.7266 90.0582 97.2143 89.637 95.6445 89.4648V84.0281V83.9133V74.5332V74.4183V65.0383V64.9234V55.5433V55.4859V46.1058V45.991V36.6109V36.496V27.0202C95.6445 26.8096 95.5105 26.6182 95.2425 26.4651C94.7065 26.1588 93.826 26.1588 93.29 26.4651C93.022 26.6182 92.8879 26.8288 92.8879 27.0202V36.496V36.6109V45.991V46.1058V55.4859V55.6007V64.9808V65.0957V74.4758V74.5906V83.9707V84.0856V89.5222C91.3182 89.6753 89.8251 90.0965 88.5999 90.8048C86.8005 91.8385 86.073 93.2551 86.341 94.5951C86.073 95.9542 86.8005 97.3517 88.5999 98.3854C91.7202 100.185 96.7931 100.185 99.9134 98.3854C101.713 97.3517 102.44 95.9351 102.172 94.5951C102.459 93.1976 101.732 91.8002 99.9326 90.7473Z" fill="#9ED9A2"/>
<path d="M70.3954 131.674C69.1894 130.966 67.6771 130.564 66.1074 130.392V124.974V124.859V115.479V115.364V105.984V105.869V96.4894V96.3746V86.9945V86.8796V77.4995V77.3847V67.9089C66.1074 67.6983 65.9734 67.5069 65.7054 67.3537C65.1694 67.0475 64.2888 67.0475 63.7528 67.3537C63.4848 67.5069 63.3508 67.7175 63.3508 67.9089V77.3847V77.4995V86.8796V86.9945V96.3746V96.4894V105.869V105.984V115.364V115.479V124.859V124.974V130.411C61.7811 130.564 60.2879 130.985 59.0628 131.693C57.2633 132.727 56.5359 134.144 56.8039 135.484C56.5359 136.843 57.2633 138.24 59.0628 139.274C62.1831 141.074 67.256 141.074 70.3763 139.274C72.1758 138.24 72.9032 136.824 72.6352 135.484C72.9223 134.125 72.1757 132.727 70.3954 131.674Z" fill="#9ED9A2"/>
<path d="M218.674 129.377C218.406 129.224 218.119 129.109 217.851 128.995L213.927 110.866C213.85 110.541 213.621 110.234 213.219 110.024C212.472 109.603 211.343 109.603 210.596 110.024C210.194 110.234 209.964 110.541 209.907 110.866L205.983 128.995C205.695 129.129 205.408 129.243 205.159 129.377C203.015 130.622 202.135 132.306 202.46 133.914C202.135 135.522 203.015 137.207 205.159 138.451C208.892 140.614 214.942 140.614 218.674 138.451C220.818 137.207 221.699 135.522 221.374 133.914C221.699 132.287 220.838 130.622 218.674 129.377Z" fill="#9ED9A2"/>
<path d="M266.53 157.135C266.262 156.982 265.975 156.867 265.707 156.752L261.782 138.624C261.706 138.299 261.476 137.992 261.074 137.782C260.328 137.361 259.198 137.361 258.452 137.782C258.05 137.992 257.82 138.299 257.762 138.624L253.838 156.752C253.551 156.886 253.264 157.001 253.015 157.135C250.871 158.38 249.99 160.064 250.316 161.672C249.99 163.28 250.871 164.965 253.015 166.209C256.748 168.372 262.797 168.372 266.53 166.209C268.674 164.965 269.554 163.28 269.229 161.672C269.554 160.045 268.693 158.38 266.53 157.135Z" fill="#9ED9A2"/>
<path d="M314.389 184.892C314.121 184.739 313.834 184.624 313.566 184.509L309.642 166.381C309.565 166.055 309.335 165.749 308.933 165.539C308.187 165.117 307.057 165.117 306.311 165.539C305.909 165.749 305.679 166.055 305.622 166.381L301.697 184.509C301.41 184.643 301.123 184.758 300.874 184.892C298.73 186.136 297.85 187.821 298.175 189.429C297.85 191.037 298.73 192.722 300.874 193.966C304.607 196.129 310.656 196.129 314.389 193.966C316.533 192.722 317.414 191.037 317.088 189.429C317.414 187.802 316.552 186.136 314.389 184.892Z" fill="#9ED9A2"/>
<path d="M52.8026 75.4515C57.2218 75.4515 60.8044 73.386 60.8044 70.8381C60.8044 68.2901 57.2218 66.2246 52.8026 66.2246C48.3833 66.2246 44.8008 68.2901 44.8008 70.8381C44.8008 73.386 48.3833 75.4515 52.8026 75.4515Z" fill="#B3B3B3"/>
<path d="M52.8026 74.3803C57.2218 74.3803 60.8044 72.3147 60.8044 69.7668C60.8044 67.2188 57.2218 65.1533 52.8026 65.1533C48.3833 65.1533 44.8008 67.2188 44.8008 69.7668C44.8008 72.3147 48.3833 74.3803 52.8026 74.3803Z" fill="#999999"/>
<path d="M51.4258 59.6777V69.2684C51.4258 69.479 51.5598 69.6704 51.8278 69.8235C52.3638 70.1298 53.2444 70.1298 53.7804 69.8235C54.0484 69.6704 54.1824 69.4598 54.1824 69.2684V59.6777H51.4258Z" fill="#808080"/>
<path d="M53.7804 59.1223C54.3164 59.4286 54.3164 59.9263 53.7804 60.2517C53.2443 60.558 52.3638 60.558 51.8278 60.2517C51.2918 59.9454 51.2918 59.4477 51.8278 59.1223C52.3638 58.816 53.2443 58.816 53.7804 59.1223Z" fill="#808080"/>
<path d="M51.4258 50.2012V59.7918C51.4258 60.0024 51.5598 60.1938 51.8278 60.347C52.3638 60.6533 53.2444 60.6533 53.7804 60.347C54.0484 60.1938 54.1824 59.9833 54.1824 59.7918V50.2012H51.4258Z" fill="#CCCCCC"/>
<path d="M53.7804 49.6474C54.3164 49.9537 54.3164 50.4514 53.7804 50.7768C53.2443 51.0831 52.3638 51.0831 51.8278 50.7768C51.2918 50.4705 51.2918 49.9728 51.8278 49.6474C52.3638 49.322 53.2443 49.322 53.7804 49.6474Z" fill="white"/>
<path d="M51.4258 40.7275V50.3182C51.4258 50.5288 51.5598 50.7202 51.8278 50.8733C52.3638 51.1796 53.2444 51.1796 53.7804 50.8733C54.0484 50.7202 54.1824 50.5096 54.1824 50.3182V40.7275H51.4258Z" fill="#808080"/>
<path d="M53.7804 40.1516C54.3164 40.4579 54.3164 40.9556 53.7804 41.281C53.2443 41.5873 52.3638 41.5873 51.8278 41.281C51.2918 40.9747 51.2918 40.477 51.8278 40.1516C52.3638 39.8453 53.2443 39.8453 53.7804 40.1516Z" fill="#808080"/>
<path d="M51.4258 31.2305V40.8211C51.4258 41.0317 51.5598 41.2231 51.8278 41.3763C52.3638 41.6826 53.2444 41.6826 53.7804 41.3763C54.0484 41.2231 54.1824 41.0126 54.1824 40.8211V31.2305H51.4258Z" fill="#CCCCCC"/>
<path d="M53.7804 30.677C54.3164 30.9833 54.3164 31.481 53.7804 31.8064C53.2443 32.1127 52.3638 32.1127 51.8278 31.8064C51.2918 31.5001 51.2918 31.0024 51.8278 30.677C52.3638 30.3707 53.2443 30.3707 53.7804 30.677Z" fill="white"/>
<path d="M51.4258 21.7568V31.3475C51.4258 31.5581 51.5598 31.7495 51.8278 31.9026C52.3638 32.2089 53.2444 32.2089 53.7804 31.9026C54.0484 31.7495 54.1824 31.5389 54.1824 31.3475V21.7568H51.4258Z" fill="#808080"/>
<path d="M53.7804 21.2001C54.3164 21.5064 54.3164 22.0041 53.7804 22.3296C53.2443 22.655 52.3638 22.6359 51.8278 22.3296C51.2918 22.0233 51.2918 21.5256 51.8278 21.2001C52.3638 20.8747 53.2443 20.8747 53.7804 21.2001Z" fill="#808080"/>
<path d="M51.4258 12.2803V21.8709C51.4258 22.0815 51.5598 22.2729 51.8278 22.4261C52.3638 22.7324 53.2444 22.7324 53.7804 22.4261C54.0484 22.2729 54.1824 22.0624 54.1824 21.8709V12.2803H51.4258Z" fill="#CCCCCC"/>
<path d="M53.7804 11.7063C54.3164 12.0126 54.3164 12.5103 53.7804 12.8357C53.2443 13.1611 52.3638 13.142 51.8278 12.8357C51.2918 12.5294 51.2918 12.0317 51.8278 11.7063C52.3638 11.4 53.2443 11.4 53.7804 11.7063Z" fill="white"/>
<path d="M51.4258 2.78516V12.3758C51.4258 12.5864 51.5598 12.7778 51.8278 12.931C52.3638 13.2372 53.2444 13.2372 53.7804 12.931C54.0484 12.7778 54.1824 12.5672 54.1824 12.3758V2.78516H51.4258Z" fill="#808080"/>
<path d="M53.7804 2.22972C54.3164 2.536 54.3164 3.03372 53.7804 3.35915C53.2443 3.66544 52.3638 3.66544 51.8278 3.35915C51.2918 3.05287 51.2918 2.55515 51.8278 2.22972C52.3638 1.92343 53.2443 1.92343 53.7804 2.22972Z" fill="#949494"/>
<path d="M99.9331 91.8193C103.053 93.6188 103.053 96.5476 99.9331 98.3471C96.8128 100.147 91.7398 100.147 88.6195 98.3471C85.4992 96.5476 85.4992 93.6188 88.6195 91.8193C91.7398 90.0199 96.8128 90.0199 99.9331 91.8193Z" fill="#B3B3B3"/>
<path d="M99.9331 90.747C103.053 92.5465 103.053 95.4754 99.9331 97.2748C96.8128 99.0743 91.7398 99.0743 88.6195 97.2748C85.4992 95.4754 85.4992 92.5465 88.6195 90.747C91.7398 88.9476 96.8128 88.9476 99.9331 90.747Z" fill="#999999"/>
<path d="M92.9043 83.9326V93.5233C92.9043 93.7338 93.0383 93.9253 93.3063 94.0784C93.8423 94.3847 94.7229 94.3847 95.2589 94.0784C95.5269 93.9253 95.6609 93.7147 95.6609 93.5233V83.9326H92.9043Z" fill="#808080"/>
<path d="M95.2589 83.3769C95.7949 83.6832 95.7949 84.1809 95.2589 84.5063C94.7229 84.8126 93.8423 84.8126 93.3063 84.5063C92.7703 84.2 92.7703 83.7023 93.3063 83.3769C93.8423 83.0515 94.7229 83.0515 95.2589 83.3769Z" fill="#808080"/>
<path d="M92.9043 74.457V84.0477C92.9043 84.2583 93.0383 84.4497 93.3063 84.6028C93.8423 84.9091 94.7229 84.9091 95.2589 84.6028C95.5269 84.4497 95.6609 84.2391 95.6609 84.0477V74.457H92.9043Z" fill="#CCCCCC"/>
<path d="M95.2589 73.883C95.7949 74.1893 95.7949 74.687 95.2589 75.0125C94.7229 75.3188 93.8423 75.3188 93.3063 75.0125C92.7703 74.7062 92.7703 74.2085 93.3063 73.883C93.8423 73.5767 94.7229 73.5767 95.2589 73.883Z" fill="white"/>
<path d="M92.9043 64.9619V74.5526C92.9043 74.7631 93.0383 74.9546 93.3063 75.1077C93.8423 75.414 94.7229 75.414 95.2589 75.1077C95.5269 74.9546 95.6609 74.744 95.6609 74.5526V64.9619H92.9043Z" fill="#808080"/>
<path d="M94.2826 65.7662C95.0438 65.7662 95.6609 65.4062 95.6609 64.9622C95.6609 64.5182 95.0438 64.1582 94.2826 64.1582C93.5214 64.1582 92.9043 64.5182 92.9043 64.9622C92.9043 65.4062 93.5214 65.7662 94.2826 65.7662Z" fill="#808080"/>
<path d="M92.9043 55.4863V65.077C92.9043 65.2876 93.0383 65.479 93.3063 65.6321C93.8423 65.9384 94.7229 65.9384 95.2589 65.6321C95.5269 65.479 95.6609 65.2684 95.6609 65.077V55.4863H92.9043Z" fill="#CCCCCC"/>
<path d="M95.2589 54.9316C95.7949 55.2379 95.7949 55.7356 95.2589 56.061C94.7229 56.3673 93.8423 56.3673 93.3063 56.061C92.7703 55.7547 92.7703 55.257 93.3063 54.9316C93.8423 54.6061 94.7229 54.6061 95.2589 54.9316Z" fill="white"/>
<path d="M92.9043 46.0098V55.6004C92.9043 55.811 93.0383 56.0024 93.3063 56.1556C93.8423 56.4619 94.7229 56.4619 95.2589 56.1556C95.5269 56.0024 95.6609 55.7918 95.6609 55.6004V46.0098H92.9043Z" fill="#808080"/>
<path d="M95.2589 45.4358C95.7949 45.7421 95.7949 46.2398 95.2589 46.5652C94.7229 46.8715 93.8423 46.8715 93.3063 46.5652C92.7703 46.2589 92.7703 45.7612 93.3063 45.4358C93.8423 45.1295 94.7229 45.1295 95.2589 45.4358Z" fill="#808080"/>
<path d="M92.9043 36.5146V46.1053C92.9043 46.3159 93.0383 46.5073 93.3063 46.6605C93.8423 46.9667 94.7229 46.9667 95.2589 46.6605C95.5269 46.5073 95.6609 46.2967 95.6609 46.1053V36.5146H92.9043Z" fill="#CCCCCC"/>
<path d="M95.2589 35.9592C95.7949 36.2655 95.7949 36.7632 95.2589 37.0886C94.7229 37.3949 93.8423 37.3949 93.3063 37.0886C92.7703 36.7824 92.7703 36.2846 93.3063 35.9592C93.8423 35.6529 94.7229 35.6529 95.2589 35.9592Z" fill="white"/>
<path d="M92.9043 27.04V36.6307C92.9043 36.8413 93.0383 37.0327 93.3063 37.1858C93.8423 37.4921 94.7229 37.4921 95.2589 37.1858C95.5269 37.0327 95.6609 36.8221 95.6609 36.6307V27.04H92.9043Z" fill="#808080"/>
<path d="M95.2589 26.4843C95.7949 26.7906 95.7949 27.2883 95.2589 27.6137C94.7229 27.92 93.8423 27.92 93.3063 27.6137C92.7703 27.3075 92.7703 26.8097 93.3063 26.4843C93.8423 26.1589 94.7229 26.1589 95.2589 26.4843Z" fill="#949494"/>
<path d="M70.396 132.746C73.5163 134.546 73.5163 137.474 70.396 139.274C67.2756 141.073 62.2027 141.073 59.0824 139.274C55.9621 137.474 55.9621 134.546 59.0824 132.746C62.2027 130.947 67.2565 130.947 70.396 132.746Z" fill="#B3B3B3"/>
<path d="M70.396 131.674C73.5163 133.473 73.5163 136.402 70.396 138.202C67.2756 140.001 62.2027 140.001 59.0824 138.202C55.9621 136.402 55.9621 133.473 59.0824 131.674C62.2027 129.874 67.2565 129.874 70.396 131.674Z" fill="#999999"/>
<path d="M63.3516 124.859V134.45C63.3516 134.661 63.4855 134.852 63.7535 135.005C64.2896 135.311 65.1702 135.311 65.7062 135.005C65.9742 134.852 66.1082 134.641 66.1082 134.45V124.859H63.3516Z" fill="#808080"/>
<path d="M65.7062 124.304C66.2422 124.61 66.2422 125.108 65.7062 125.433C65.1702 125.739 64.2896 125.739 63.7536 125.433C63.2176 125.127 63.2176 124.629 63.7536 124.304C64.2896 123.978 65.1702 123.978 65.7062 124.304Z" fill="#808080"/>
<path d="M63.3516 115.384V124.974C63.3516 125.185 63.4855 125.376 63.7535 125.53C64.2896 125.836 65.1702 125.836 65.7062 125.53C65.9742 125.376 66.1082 125.166 66.1082 124.974V115.384H63.3516Z" fill="#CCCCCC"/>
<path d="M65.7062 114.81C66.2422 115.116 66.2422 115.614 65.7062 115.939C65.1702 116.246 64.2896 116.246 63.7536 115.939C63.2176 115.633 63.2176 115.135 63.7536 114.81C64.2896 114.504 65.1702 114.504 65.7062 114.81Z" fill="white"/>
<path d="M63.3516 105.889V115.479C63.3516 115.69 63.4855 115.881 63.7535 116.034C64.2896 116.341 65.1702 116.341 65.7062 116.034C65.9742 115.881 66.1082 115.671 66.1082 115.479V105.889H63.3516Z" fill="#808080"/>
<path d="M64.7299 106.693C65.4911 106.693 66.1082 106.333 66.1082 105.889C66.1082 105.445 65.4911 105.085 64.7299 105.085C63.9686 105.085 63.3516 105.445 63.3516 105.889C63.3516 106.333 63.9686 106.693 64.7299 106.693Z" fill="#808080"/>
<path d="M63.3516 96.4131V106.004C63.3516 106.214 63.4855 106.406 63.7535 106.559C64.2896 106.865 65.1702 106.865 65.7062 106.559C65.9742 106.406 66.1082 106.195 66.1082 106.004V96.4131H63.3516Z" fill="#CCCCCC"/>
<path d="M64.7299 97.2164C65.4911 97.2164 66.1082 96.8565 66.1082 96.4124C66.1082 95.9684 65.4911 95.6084 64.7299 95.6084C63.9686 95.6084 63.3516 95.9684 63.3516 96.4124C63.3516 96.8565 63.9686 97.2164 64.7299 97.2164Z" fill="white"/>
<path d="M63.3516 86.9365V96.5272C63.3516 96.7378 63.4855 96.9292 63.7535 97.0823C64.2896 97.3886 65.1702 97.3886 65.7062 97.0823C65.9742 96.9292 66.1082 96.7186 66.1082 96.5272V86.9365H63.3516Z" fill="#808080"/>
<path d="M64.7299 87.7408C65.4911 87.7408 66.1082 87.3809 66.1082 86.9368C66.1082 86.4928 65.4911 86.1328 64.7299 86.1328C63.9686 86.1328 63.3516 86.4928 63.3516 86.9368C63.3516 87.3809 63.9686 87.7408 64.7299 87.7408Z" fill="#808080"/>
<path d="M63.3516 77.4414V87.0321C63.3516 87.2426 63.4855 87.4341 63.7535 87.5872C64.2896 87.8935 65.1702 87.8935 65.7062 87.5872C65.9742 87.4341 66.1082 87.2235 66.1082 87.0321V77.4414H63.3516Z" fill="#CCCCCC"/>
<path d="M65.7062 76.886C66.2422 77.1923 66.2422 77.69 65.7062 78.0154C65.1702 78.3217 64.2896 78.3217 63.7536 78.0154C63.2176 77.7091 63.2176 77.2114 63.7536 76.886C64.2896 76.5797 65.1702 76.5797 65.7062 76.886Z" fill="white"/>
<path d="M63.3516 67.9668V77.5575C63.3516 77.768 63.4855 77.9595 63.7535 78.1126C64.2896 78.4189 65.1702 78.4189 65.7062 78.1126C65.9742 77.9595 66.1082 77.7489 66.1082 77.5575V67.9668H63.3516Z" fill="#808080"/>
<path d="M65.7062 67.4111C66.2422 67.7174 66.2422 68.2151 65.7062 68.5405C65.1702 68.8468 64.2896 68.8468 63.7536 68.5405C63.2176 68.2342 63.2176 67.7365 63.7536 67.4111C64.2896 67.0856 65.1702 67.0856 65.7062 67.4111Z" fill="#949494"/>
<path d="M147.789 118.618C150.909 120.418 150.909 123.346 147.789 125.146C144.668 126.945 139.595 126.945 136.475 125.146C133.355 123.346 133.355 120.418 136.475 118.618C139.595 116.819 144.668 116.819 147.789 118.618Z" fill="#B3B3B3"/>
<path d="M147.789 117.546C150.909 119.345 150.909 122.274 147.789 124.074C144.668 125.873 139.595 125.873 136.475 124.074C133.355 122.274 133.355 119.345 136.475 117.546C139.595 115.746 144.668 115.746 147.789 117.546Z" fill="#999999"/>
<path d="M140.76 110.731V120.322C140.76 120.533 140.894 120.724 141.162 120.877C141.698 121.184 142.578 121.184 143.114 120.877C143.382 120.724 143.516 120.514 143.516 120.322V110.731H140.76Z" fill="#808080"/>
<path d="M143.114 110.176C143.65 110.482 143.65 110.98 143.114 111.305C142.578 111.611 141.698 111.611 141.162 111.305C140.626 110.999 140.626 110.501 141.162 110.176C141.698 109.85 142.578 109.85 143.114 110.176Z" fill="#808080"/>
<path d="M140.76 101.256V110.847C140.76 111.057 140.894 111.249 141.162 111.402C141.698 111.708 142.578 111.708 143.114 111.402C143.382 111.249 143.516 111.038 143.516 110.847V101.256H140.76Z" fill="#CCCCCC"/>
<path d="M143.114 100.681C143.65 100.987 143.65 101.485 143.114 101.81C142.578 102.117 141.698 102.117 141.162 101.81C140.626 101.504 140.626 101.006 141.162 100.681C141.698 100.375 142.578 100.375 143.114 100.681Z" fill="white"/>
<path d="M140.76 91.7607V101.351C140.76 101.562 140.894 101.753 141.162 101.907C141.698 102.213 142.578 102.213 143.114 101.907C143.382 101.753 143.516 101.543 143.516 101.351V91.7607H140.76Z" fill="#808080"/>
<path d="M142.138 92.5651C142.899 92.5651 143.516 92.2051 143.516 91.761C143.516 91.317 142.899 90.957 142.138 90.957C141.377 90.957 140.76 91.317 140.76 91.761C140.76 92.2051 141.377 92.5651 142.138 92.5651Z" fill="#808080"/>
<path d="M140.76 82.2852V91.8758C140.76 92.0864 140.894 92.2778 141.162 92.431C141.698 92.7373 142.578 92.7373 143.114 92.431C143.382 92.2778 143.516 92.0672 143.516 91.8758V82.2852H140.76Z" fill="#CCCCCC"/>
<path d="M143.114 81.7304C143.65 82.0367 143.65 82.5344 143.114 82.8598C142.578 83.1661 141.698 83.1661 141.162 82.8598C140.626 82.5536 140.626 82.0558 141.162 81.7304C141.698 81.405 142.578 81.405 143.114 81.7304Z" fill="white"/>
<path d="M140.76 72.8086V82.3992C140.76 82.6098 140.894 82.8013 141.162 82.9544C141.698 83.2607 142.578 83.2607 143.114 82.9544C143.382 82.8013 143.516 82.5907 143.516 82.3992V72.8086H140.76Z" fill="#808080"/>
<path d="M143.114 72.2346C143.65 72.5409 143.65 73.0386 143.114 73.364C142.578 73.6703 141.698 73.6703 141.162 73.364C140.626 73.0577 140.626 72.56 141.162 72.2346C141.698 71.9283 142.578 71.9283 143.114 72.2346Z" fill="#808080"/>
<path d="M140.76 63.3135V72.9041C140.76 73.1147 140.894 73.3061 141.162 73.4593C141.698 73.7656 142.578 73.7656 143.114 73.4593C143.382 73.3061 143.516 73.0956 143.516 72.9041V63.3135H140.76Z" fill="#CCCCCC"/>
<path d="M143.114 62.758C143.65 63.0643 143.65 63.562 143.114 63.8875C142.578 64.1938 141.698 64.1938 141.162 63.8875C140.626 63.5812 140.626 63.0835 141.162 62.758C141.698 62.4517 142.578 62.4517 143.114 62.758Z" fill="white"/>
<path d="M140.76 53.8389V63.4295C140.76 63.6401 140.894 63.8315 141.162 63.9847C141.698 64.291 142.578 64.291 143.114 63.9847C143.382 63.8315 143.516 63.6209 143.516 63.4295V53.8389H140.76Z" fill="#808080"/>
<path d="M143.114 53.2831C143.65 53.5894 143.65 54.0871 143.114 54.4126C142.578 54.7189 141.698 54.7189 141.162 54.4126C140.626 54.1063 140.626 53.6086 141.162 53.2831C141.698 52.9577 142.578 52.9577 143.114 53.2831Z" fill="#949494"/>
<path d="M205.159 130.642C201.426 132.805 201.426 136.289 205.159 138.453C208.892 140.616 214.941 140.616 218.674 138.453C222.407 136.289 222.407 132.805 218.674 130.642C214.941 128.498 208.892 128.498 205.159 130.642Z" fill="#646464"/>
<path d="M205.159 129.377C201.426 131.54 201.426 135.024 205.159 137.188C208.892 139.351 214.941 139.351 218.674 137.188C222.407 135.024 222.407 131.54 218.674 129.377C214.941 127.214 208.892 127.214 205.159 129.377Z" fill="#A1A1A1"/>
<path d="M213.929 110.848L218.696 132.881C218.696 133.877 218.026 134.891 216.705 135.638C214.063 137.169 209.775 137.169 207.133 135.638C205.813 134.872 205.143 133.877 205.143 132.881L209.909 110.848H213.929Z" fill="#7D7D7D"/>
<path d="M210.612 110.004C209.789 110.464 209.636 111.287 210.363 111.861C211.186 112.493 212.641 112.493 213.464 111.861C214.211 111.287 214.039 110.464 213.216 110.004C212.488 109.583 211.359 109.583 210.612 110.004Z" fill="#7D7D7D"/>
<path d="M213.925 110.848L218.692 132.881C218.692 133.877 218.022 134.891 216.701 135.638C214.059 137.169 209.771 137.169 207.13 135.638C205.809 134.872 205.139 133.877 205.139 132.881L209.905 110.848H213.925Z" fill="#7D7D7D"/>
<path d="M253.013 158.399C249.28 160.562 249.28 164.046 253.013 166.209C256.745 168.373 262.795 168.373 266.528 166.209C270.26 164.046 270.26 160.562 266.528 158.399C262.795 156.255 256.745 156.255 253.013 158.399Z" fill="#646464"/>
<path d="M253.013 157.134C249.28 159.297 249.28 162.781 253.013 164.944C256.745 167.108 262.795 167.108 266.528 164.944C270.26 162.781 270.26 159.297 266.528 157.134C262.795 154.971 256.745 154.971 253.013 157.134Z" fill="#A1A1A1"/>
<path d="M261.781 138.604L266.547 160.638C266.547 161.634 265.877 162.648 264.557 163.395C261.915 164.926 257.627 164.926 254.985 163.395C253.664 162.629 252.994 161.634 252.994 160.638L257.761 138.604H261.781Z" fill="#7D7D7D"/>
<path d="M258.464 137.761C257.641 138.221 257.487 139.044 258.215 139.618C259.038 140.25 260.493 140.25 261.316 139.618C262.063 139.044 261.89 138.221 261.067 137.761C260.34 137.34 259.21 137.34 258.464 137.761Z" fill="#7D7D7D"/>
<path d="M261.781 138.604L266.547 160.638C266.547 161.634 265.877 162.648 264.557 163.395C261.915 164.926 257.627 164.926 254.985 163.395C253.664 162.629 252.994 161.634 252.994 160.638L257.761 138.604H261.781Z" fill="#7D7D7D"/>
<path d="M300.864 186.159C297.131 188.322 297.131 191.806 300.864 193.969C304.597 196.132 310.646 196.132 314.379 193.969C318.112 191.806 318.112 188.322 314.379 186.159C310.646 184.015 304.597 184.015 300.864 186.159Z" fill="#646464"/>
<path d="M300.864 184.894C297.131 187.057 297.131 190.541 300.864 192.704C304.597 194.867 310.646 194.867 314.379 192.704C318.112 190.541 318.112 187.057 314.379 184.894C310.646 182.731 304.597 182.731 300.864 184.894Z" fill="#A1A1A1"/>
<path d="M309.636 166.363L314.403 188.397C314.403 189.392 313.733 190.407 312.412 191.154C309.77 192.685 305.482 192.685 302.84 191.154C301.52 190.388 300.85 189.392 300.85 188.397L305.616 166.363H309.636Z" fill="#7D7D7D"/>
<path d="M306.319 165.521C305.496 165.98 305.343 166.804 306.07 167.378C306.893 168.01 308.348 168.01 309.171 167.378C309.918 166.804 309.746 165.98 308.923 165.521C308.195 165.1 307.066 165.1 306.319 165.521Z" fill="#7D7D7D"/>
<path d="M309.636 166.363L314.403 188.397C314.403 189.392 313.733 190.407 312.412 191.154C309.77 192.685 305.482 192.685 302.84 191.154C301.52 190.388 300.85 189.392 300.85 188.397L305.616 166.363H309.636Z" fill="#7D7D7D"/>
<defs>
<linearGradient id="paint0_linear_318_192" x1="184.994" y1="551.473" x2="184.994" y2="-83.5268" gradientUnits="userSpaceOnUse">
<stop stop-color="white"/>
<stop offset="1" stop-color="#AEE896"/>
</linearGradient>
</defs>
</svg>
